<?xml version="1.0" encoding="UTF-8" standalone="no"?>
<!DOCTYPE svg PUBLIC "-//W3C//DTD SVG 1.1//EN" "http://www.w3.org/Graphics/SVG/1.1/DTD/svg11.dtd">
<svg width="100%" height="100%" viewBox="0 0 500 500" version="1.1" xmlns="http://www.w3.org/2000/svg" xmlns:xlink="http://www.w3.org/1999/xlink" xml:space="preserve" xmlns:serif="http://www.serif.com/" style="fill-rule:evenodd;clip-rule:evenodd;stroke-linejoin:round;stroke-miterlimit:2;">
    <g transform="matrix(1,0,0,1,-26.4647,-43)">
        <g transform="matrix(64,0,0,64,52.2442,124.502)">
            <path d="M0.591,-0L0.547,-0L0.547,-0.098C0.538,-0.086 0.529,-0.075 0.519,-0.065C0.467,-0.013 0.403,0.014 0.329,0.014C0.255,0.014 0.192,-0.013 0.14,-0.065C0.087,-0.117 0.061,-0.181 0.061,-0.254C0.061,-0.329 0.087,-0.392 0.14,-0.444C0.192,-0.497 0.255,-0.523 0.329,-0.523C0.403,-0.523 0.467,-0.497 0.519,-0.444C0.529,-0.434 0.538,-0.423 0.547,-0.412L0.547,-0.479L0.591,-0.479L0.591,-0ZM0.547,-0.211L0.547,-0.298C0.539,-0.341 0.518,-0.379 0.486,-0.411C0.443,-0.454 0.39,-0.476 0.329,-0.476C0.268,-0.476 0.216,-0.454 0.172,-0.411C0.129,-0.368 0.107,-0.316 0.107,-0.254C0.107,-0.193 0.129,-0.141 0.172,-0.098C0.216,-0.055 0.268,-0.033 0.329,-0.033C0.39,-0.033 0.443,-0.055 0.486,-0.098C0.518,-0.131 0.539,-0.168 0.547,-0.211Z" style="fill-rule:nonzero;"/>
        </g>
        <g transform="matrix(64,0,0,64,94.7442,124.502)">
            <path d="M0.484,-0.115L0.531,-0.099C0.522,-0.087 0.513,-0.076 0.502,-0.065C0.45,-0.013 0.386,0.014 0.312,0.014C0.238,0.014 0.175,-0.013 0.123,-0.065C0.07,-0.117 0.044,-0.181 0.044,-0.255C0.044,-0.329 0.07,-0.392 0.123,-0.444C0.175,-0.497 0.238,-0.523 0.312,-0.523C0.386,-0.523 0.45,-0.497 0.502,-0.444C0.513,-0.434 0.522,-0.423 0.531,-0.411L0.484,-0.394C0.479,-0.4 0.474,-0.406 0.469,-0.412C0.425,-0.455 0.373,-0.476 0.312,-0.476C0.251,-0.476 0.199,-0.455 0.156,-0.411C0.112,-0.368 0.091,-0.316 0.091,-0.255C0.091,-0.194 0.112,-0.141 0.156,-0.098C0.199,-0.055 0.251,-0.033 0.312,-0.033C0.373,-0.033 0.425,-0.055 0.469,-0.098C0.474,-0.104 0.479,-0.109 0.484,-0.115Z" style="fill-rule:nonzero;"/>
        </g>
        <g transform="matrix(64,0,0,64,131.525,124.502)">
            <path d="M0.165,-0.09C0.206,-0.052 0.255,-0.033 0.312,-0.033C0.373,-0.033 0.425,-0.055 0.469,-0.098C0.474,-0.104 0.479,-0.109 0.484,-0.115L0.531,-0.099C0.522,-0.087 0.513,-0.076 0.502,-0.065C0.45,-0.013 0.386,0.014 0.312,0.014C0.238,0.014 0.175,-0.013 0.123,-0.065C0.07,-0.117 0.044,-0.181 0.044,-0.255C0.044,-0.329 0.07,-0.392 0.123,-0.444C0.175,-0.497 0.238,-0.523 0.312,-0.523C0.375,-0.523 0.431,-0.504 0.479,-0.466C0.486,-0.459 0.494,-0.452 0.502,-0.444C0.505,-0.441 0.508,-0.438 0.51,-0.436L0.165,-0.09ZM0.445,-0.432C0.407,-0.461 0.362,-0.476 0.312,-0.476C0.251,-0.476 0.199,-0.455 0.156,-0.411C0.112,-0.368 0.091,-0.316 0.091,-0.255C0.091,-0.204 0.105,-0.16 0.135,-0.122L0.445,-0.432Z" style="fill-rule:nonzero;"/>
        </g>
        <g transform="matrix(64,0,0,64,168.307,124.502)">
            <path d="M0.073,-0.479L0.117,-0.479L0.117,-0.392C0.126,-0.405 0.137,-0.418 0.149,-0.43C0.188,-0.468 0.227,-0.489 0.268,-0.491L0.268,-0.443C0.24,-0.442 0.212,-0.426 0.182,-0.396C0.14,-0.355 0.119,-0.306 0.117,-0.248L0.117,-0L0.073,-0L0.073,-0.479Z" style="fill-rule:nonzero;"/>
        </g>
        <g transform="matrix(64,0,0,64,187.025,124.502)">
            <path d="M0.073,-0.479L0.117,-0.479L0.117,-0.392C0.126,-0.405 0.137,-0.418 0.149,-0.43C0.188,-0.468 0.227,-0.489 0.268,-0.491L0.268,-0.443C0.24,-0.442 0.212,-0.426 0.182,-0.396C0.14,-0.355 0.119,-0.306 0.117,-0.248L0.117,-0L0.073,-0L0.073,-0.479Z" style="fill-rule:nonzero;"/>
        </g>
        <g transform="matrix(64,0,0,64,205.744,124.502)">
            <path d="M0.591,-0L0.547,-0L0.547,-0.098C0.538,-0.086 0.529,-0.075 0.519,-0.065C0.467,-0.013 0.403,0.014 0.329,0.014C0.255,0.014 0.192,-0.013 0.14,-0.065C0.087,-0.117 0.061,-0.181 0.061,-0.254C0.061,-0.329 0.087,-0.392 0.14,-0.444C0.192,-0.497 0.255,-0.523 0.329,-0.523C0.403,-0.523 0.467,-0.497 0.519,-0.444C0.529,-0.434 0.538,-0.423 0.547,-0.412L0.547,-0.479L0.591,-0.479L0.591,-0ZM0.547,-0.211L0.547,-0.298C0.539,-0.341 0.518,-0.379 0.486,-0.411C0.443,-0.454 0.39,-0.476 0.329,-0.476C0.268,-0.476 0.216,-0.454 0.172,-0.411C0.129,-0.368 0.107,-0.316 0.107,-0.254C0.107,-0.193 0.129,-0.141 0.172,-0.098C0.216,-0.055 0.268,-0.033 0.329,-0.033C0.39,-0.033 0.443,-0.055 0.486,-0.098C0.518,-0.131 0.539,-0.168 0.547,-0.211Z" style="fill:rgb(190,34,34);fill-rule:nonzero;"/>
        </g>
        <g transform="matrix(64,0,0,64,270.369,124.502)">
            <path d="M0.591,-0L0.547,-0L0.547,-0.098C0.538,-0.086 0.529,-0.075 0.519,-0.065C0.467,-0.013 0.403,0.014 0.329,0.014C0.255,0.014 0.192,-0.013 0.14,-0.065C0.087,-0.117 0.061,-0.181 0.061,-0.254C0.061,-0.329 0.087,-0.392 0.14,-0.444C0.192,-0.497 0.255,-0.523 0.329,-0.523C0.403,-0.523 0.467,-0.497 0.519,-0.444C0.529,-0.434 0.538,-0.423 0.547,-0.412L0.547,-0.781L0.591,-0.781L0.591,-0ZM0.547,-0.211L0.547,-0.298C0.539,-0.341 0.518,-0.379 0.486,-0.411C0.443,-0.454 0.39,-0.476 0.329,-0.476C0.268,-0.476 0.216,-0.454 0.172,-0.411C0.129,-0.368 0.107,-0.316 0.107,-0.254C0.107,-0.193 0.129,-0.141 0.172,-0.098C0.216,-0.055 0.268,-0.033 0.329,-0.033C0.39,-0.033 0.443,-0.055 0.486,-0.098C0.518,-0.131 0.539,-0.168 0.547,-0.211Z" style="fill:rgb(190,34,34);fill-rule:nonzero;"/>
        </g>
        <g transform="matrix(64,0,0,64,312.869,124.502)">
            <path d="M0.591,-0L0.547,-0L0.547,-0.098C0.538,-0.086 0.529,-0.075 0.519,-0.065C0.467,-0.013 0.403,0.014 0.329,0.014C0.255,0.014 0.192,-0.013 0.14,-0.065C0.087,-0.117 0.061,-0.181 0.061,-0.254C0.061,-0.329 0.087,-0.392 0.14,-0.444C0.192,-0.497 0.255,-0.523 0.329,-0.523C0.403,-0.523 0.467,-0.497 0.519,-0.444C0.529,-0.434 0.538,-0.423 0.547,-0.412L0.547,-0.479L0.591,-0.479L0.591,-0ZM0.547,-0.211L0.547,-0.298C0.539,-0.341 0.518,-0.379 0.486,-0.411C0.443,-0.454 0.39,-0.476 0.329,-0.476C0.268,-0.476 0.216,-0.454 0.172,-0.411C0.129,-0.368 0.107,-0.316 0.107,-0.254C0.107,-0.193 0.129,-0.141 0.172,-0.098C0.216,-0.055 0.268,-0.033 0.329,-0.033C0.39,-0.033 0.443,-0.055 0.486,-0.098C0.518,-0.131 0.539,-0.168 0.547,-0.211Z" style="fill-rule:nonzero;"/>
        </g>
        <g transform="matrix(64,0,0,64,355.525,124.502)">
            <path d="M0.142,-0.479L0.142,-0.684L0.186,-0.684L0.186,-0.479L0.283,-0.479L0.283,-0.436L0.186,-0.436L0.186,-0L0.142,-0L0.142,-0.436L0.044,-0.436L0.044,-0.479L0.142,-0.479Z" style="fill-rule:nonzero;"/>
        </g>
        <g transform="matrix(64,0,0,64,376.463,124.502)">
            <path d="M0.591,-0L0.547,-0L0.547,-0.098C0.538,-0.086 0.529,-0.075 0.519,-0.065C0.467,-0.013 0.403,0.014 0.329,0.014C0.255,0.014 0.192,-0.013 0.14,-0.065C0.087,-0.117 0.061,-0.181 0.061,-0.254C0.061,-0.329 0.087,-0.392 0.14,-0.444C0.192,-0.497 0.255,-0.523 0.329,-0.523C0.403,-0.523 0.467,-0.497 0.519,-0.444C0.529,-0.434 0.538,-0.423 0.547,-0.412L0.547,-0.479L0.591,-0.479L0.591,-0ZM0.547,-0.211L0.547,-0.298C0.539,-0.341 0.518,-0.379 0.486,-0.411C0.443,-0.454 0.39,-0.476 0.329,-0.476C0.268,-0.476 0.216,-0.454 0.172,-0.411C0.129,-0.368 0.107,-0.316 0.107,-0.254C0.107,-0.193 0.129,-0.141 0.172,-0.098C0.216,-0.055 0.268,-0.033 0.329,-0.033C0.39,-0.033 0.443,-0.055 0.486,-0.098C0.518,-0.131 0.539,-0.168 0.547,-0.211Z" style="fill-rule:nonzero;"/>
        </g>
    </g>
    <g transform="matrix(64,0,0,64,263.78,201.502)">
        <path d="M0.591,-0L0.547,-0L0.547,-0.098C0.538,-0.086 0.529,-0.075 0.519,-0.065C0.467,-0.013 0.403,0.014 0.329,0.014C0.255,0.014 0.192,-0.013 0.14,-0.065C0.087,-0.117 0.061,-0.181 0.061,-0.254C0.061,-0.329 0.087,-0.392 0.14,-0.444C0.192,-0.497 0.255,-0.523 0.329,-0.523C0.403,-0.523 0.467,-0.497 0.519,-0.444C0.529,-0.434 0.538,-0.423 0.547,-0.412L0.547,-0.479L0.591,-0.479L0.591,-0ZM0.547,-0.211L0.547,-0.298C0.539,-0.341 0.518,-0.379 0.486,-0.411C0.443,-0.454 0.39,-0.476 0.329,-0.476C0.268,-0.476 0.216,-0.454 0.172,-0.411C0.129,-0.368 0.107,-0.316 0.107,-0.254C0.107,-0.193 0.129,-0.141 0.172,-0.098C0.216,-0.055 0.268,-0.033 0.329,-0.033C0.39,-0.033 0.443,-0.055 0.486,-0.098C0.518,-0.131 0.539,-0.168 0.547,-0.211Z" style="fill:rgb(190,34,34);fill-rule:nonzero;"/>
    </g>
    <g transform="matrix(64,0,0,64,306.28,201.502)">
        <path d="M0.484,-0.115L0.531,-0.099C0.522,-0.087 0.513,-0.076 0.502,-0.065C0.45,-0.013 0.386,0.014 0.312,0.014C0.238,0.014 0.175,-0.013 0.123,-0.065C0.07,-0.117 0.044,-0.181 0.044,-0.255C0.044,-0.329 0.07,-0.392 0.123,-0.444C0.175,-0.497 0.238,-0.523 0.312,-0.523C0.386,-0.523 0.45,-0.497 0.502,-0.444C0.513,-0.434 0.522,-0.423 0.531,-0.411L0.484,-0.394C0.479,-0.4 0.474,-0.406 0.469,-0.412C0.425,-0.455 0.373,-0.476 0.312,-0.476C0.251,-0.476 0.199,-0.455 0.156,-0.411C0.112,-0.368 0.091,-0.316 0.091,-0.255C0.091,-0.194 0.112,-0.141 0.156,-0.098C0.199,-0.055 0.251,-0.033 0.312,-0.033C0.373,-0.033 0.425,-0.055 0.469,-0.098C0.474,-0.104 0.479,-0.109 0.484,-0.115Z" style="fill-rule:nonzero;"/>
    </g>
    <g transform="matrix(64,0,0,64,343.061,201.502)">
        <path d="M0.165,-0.09C0.206,-0.052 0.255,-0.033 0.312,-0.033C0.373,-0.033 0.425,-0.055 0.469,-0.098C0.474,-0.104 0.479,-0.109 0.484,-0.115L0.531,-0.099C0.522,-0.087 0.513,-0.076 0.502,-0.065C0.45,-0.013 0.386,0.014 0.312,0.014C0.238,0.014 0.175,-0.013 0.123,-0.065C0.07,-0.117 0.044,-0.181 0.044,-0.255C0.044,-0.329 0.07,-0.392 0.123,-0.444C0.175,-0.497 0.238,-0.523 0.312,-0.523C0.375,-0.523 0.431,-0.504 0.479,-0.466C0.486,-0.459 0.494,-0.452 0.502,-0.444C0.505,-0.441 0.508,-0.438 0.51,-0.436L0.165,-0.09ZM0.445,-0.432C0.407,-0.461 0.362,-0.476 0.312,-0.476C0.251,-0.476 0.199,-0.455 0.156,-0.411C0.112,-0.368 0.091,-0.316 0.091,-0.255C0.091,-0.204 0.105,-0.16 0.135,-0.122L0.445,-0.432Z" style="fill-rule:nonzero;"/>
    </g>
    <g transform="matrix(64,0,0,64,379.842,201.502)">
        <path d="M0.073,-0.479L0.117,-0.479L0.117,-0.392C0.126,-0.405 0.137,-0.418 0.149,-0.43C0.188,-0.468 0.227,-0.489 0.268,-0.491L0.268,-0.443C0.24,-0.442 0.212,-0.426 0.182,-0.396C0.14,-0.355 0.119,-0.306 0.117,-0.248L0.117,-0L0.073,-0L0.073,-0.479Z" style="fill-rule:nonzero;"/>
    </g>
    <g transform="matrix(64,0,0,64,398.561,201.502)">
        <path d="M0.073,-0.479L0.117,-0.479L0.117,-0.392C0.126,-0.405 0.137,-0.418 0.149,-0.43C0.188,-0.468 0.227,-0.489 0.268,-0.491L0.268,-0.443C0.24,-0.442 0.212,-0.426 0.182,-0.396C0.14,-0.355 0.119,-0.306 0.117,-0.248L0.117,-0L0.073,-0L0.073,-0.479Z" style="fill-rule:nonzero;"/>
    </g>
    <g transform="matrix(-64,0,0,64,458.998,201.502)">
        <path d="M0.591,-0L0.547,-0L0.547,-0.098C0.538,-0.086 0.529,-0.075 0.519,-0.065C0.467,-0.013 0.403,0.014 0.329,0.014C0.255,0.014 0.192,-0.013 0.14,-0.065C0.087,-0.117 0.061,-0.181 0.061,-0.254C0.061,-0.329 0.087,-0.392 0.14,-0.444C0.192,-0.497 0.255,-0.523 0.329,-0.523C0.403,-0.523 0.467,-0.497 0.519,-0.444C0.529,-0.434 0.538,-0.423 0.547,-0.412L0.547,-0.479L0.591,-0.479L0.591,-0ZM0.547,-0.211L0.547,-0.298C0.539,-0.341 0.518,-0.379 0.486,-0.411C0.443,-0.454 0.39,-0.476 0.329,-0.476C0.268,-0.476 0.216,-0.454 0.172,-0.411C0.129,-0.368 0.107,-0.316 0.107,-0.254C0.107,-0.193 0.129,-0.141 0.172,-0.098C0.216,-0.055 0.268,-0.033 0.329,-0.033C0.39,-0.033 0.443,-0.055 0.486,-0.098C0.518,-0.131 0.539,-0.168 0.547,-0.211Z" style="fill:rgb(190,34,34);fill-rule:nonzero;"/>
    </g>
    <g transform="matrix(64,0,0,64,287.545,257.502)">
        <path d="M0.591,-0L0.547,-0L0.547,-0.098C0.538,-0.086 0.529,-0.075 0.519,-0.065C0.467,-0.013 0.403,0.014 0.329,0.014C0.255,0.014 0.192,-0.013 0.14,-0.065C0.087,-0.117 0.061,-0.181 0.061,-0.254C0.061,-0.329 0.087,-0.392 0.14,-0.444C0.192,-0.497 0.255,-0.523 0.329,-0.523C0.403,-0.523 0.467,-0.497 0.519,-0.444C0.529,-0.434 0.538,-0.423 0.547,-0.412L0.547,-0.781L0.591,-0.781L0.591,-0ZM0.547,-0.211L0.547,-0.298C0.539,-0.341 0.518,-0.379 0.486,-0.411C0.443,-0.454 0.39,-0.476 0.329,-0.476C0.268,-0.476 0.216,-0.454 0.172,-0.411C0.129,-0.368 0.107,-0.316 0.107,-0.254C0.107,-0.193 0.129,-0.141 0.172,-0.098C0.216,-0.055 0.268,-0.033 0.329,-0.033C0.39,-0.033 0.443,-0.055 0.486,-0.098C0.518,-0.131 0.539,-0.168 0.547,-0.211Z" style="fill-rule:nonzero;"/>
    </g>
    <g transform="matrix(64,0,0,64,330.045,257.502)">
        <path d="M0.591,-0L0.547,-0L0.547,-0.098C0.538,-0.086 0.529,-0.075 0.519,-0.065C0.467,-0.013 0.403,0.014 0.329,0.014C0.255,0.014 0.192,-0.013 0.14,-0.065C0.087,-0.117 0.061,-0.181 0.061,-0.254C0.061,-0.329 0.087,-0.392 0.14,-0.444C0.192,-0.497 0.255,-0.523 0.329,-0.523C0.403,-0.523 0.467,-0.497 0.519,-0.444C0.529,-0.434 0.538,-0.423 0.547,-0.412L0.547,-0.479L0.591,-0.479L0.591,-0ZM0.547,-0.211L0.547,-0.298C0.539,-0.341 0.518,-0.379 0.486,-0.411C0.443,-0.454 0.39,-0.476 0.329,-0.476C0.268,-0.476 0.216,-0.454 0.172,-0.411C0.129,-0.368 0.107,-0.316 0.107,-0.254C0.107,-0.193 0.129,-0.141 0.172,-0.098C0.216,-0.055 0.268,-0.033 0.329,-0.033C0.39,-0.033 0.443,-0.055 0.486,-0.098C0.518,-0.131 0.539,-0.168 0.547,-0.211Z" style="fill-rule:nonzero;"/>
    </g>
    <g transform="matrix(64,0,0,64,372.701,257.502)">
        <path d="M0.142,-0.479L0.142,-0.684L0.186,-0.684L0.186,-0.479L0.283,-0.479L0.283,-0.436L0.186,-0.436L0.186,-0L0.142,-0L0.142,-0.436L0.044,-0.436L0.044,-0.479L0.142,-0.479Z" style="fill-rule:nonzero;"/>
    </g>
    <g transform="matrix(-64,0,0,64,435.358,257.502)">
        <path d="M0.591,-0L0.547,-0L0.547,-0.098C0.538,-0.086 0.529,-0.075 0.519,-0.065C0.467,-0.013 0.403,0.014 0.329,0.014C0.255,0.014 0.192,-0.013 0.14,-0.065C0.087,-0.117 0.061,-0.181 0.061,-0.254C0.061,-0.329 0.087,-0.392 0.14,-0.444C0.192,-0.497 0.255,-0.523 0.329,-0.523C0.403,-0.523 0.467,-0.497 0.519,-0.444C0.529,-0.434 0.538,-0.423 0.547,-0.412L0.547,-0.479L0.591,-0.479L0.591,-0ZM0.547,-0.211L0.547,-0.298C0.539,-0.341 0.518,-0.379 0.486,-0.411C0.443,-0.454 0.39,-0.476 0.329,-0.476C0.268,-0.476 0.216,-0.454 0.172,-0.411C0.129,-0.368 0.107,-0.316 0.107,-0.254C0.107,-0.193 0.129,-0.141 0.172,-0.098C0.216,-0.055 0.268,-0.033 0.329,-0.033C0.39,-0.033 0.443,-0.055 0.486,-0.098C0.518,-0.131 0.539,-0.168 0.547,-0.211Z" style="fill-rule:nonzero;"/>
    </g>
    <g transform="matrix(172.167,0,0,172.167,29.1775,310.035)">
        <path d="M0.591,-0L0.547,-0L0.547,-0.098C0.538,-0.086 0.529,-0.075 0.519,-0.065C0.467,-0.013 0.403,0.014 0.329,0.014C0.255,0.014 0.192,-0.013 0.14,-0.065C0.087,-0.117 0.061,-0.181 0.061,-0.254C0.061,-0.329 0.087,-0.392 0.14,-0.444C0.192,-0.497 0.255,-0.523 0.329,-0.523C0.403,-0.523 0.467,-0.497 0.519,-0.444C0.529,-0.434 0.538,-0.423 0.547,-0.412L0.547,-0.479L0.591,-0.479L0.591,-0ZM0.547,-0.211L0.547,-0.298C0.539,-0.341 0.518,-0.379 0.486,-0.411C0.443,-0.454 0.39,-0.476 0.329,-0.476C0.268,-0.476 0.216,-0.454 0.172,-0.411C0.129,-0.368 0.107,-0.316 0.107,-0.254C0.107,-0.193 0.129,-0.141 0.172,-0.098C0.216,-0.055 0.268,-0.033 0.329,-0.033C0.39,-0.033 0.443,-0.055 0.486,-0.098C0.518,-0.131 0.539,-0.168 0.547,-0.211Z" style="fill:rgb(190,34,34);fill-rule:nonzero;"/>
    </g>
    <g transform="matrix(104.717,0,0,104.717,132.54,309.881)">
        <path d="M0.117,-0.735L0.117,-0.045L0.121,-0.045C0.236,-0.045 0.326,-0.077 0.388,-0.139C0.457,-0.208 0.492,-0.292 0.492,-0.391C0.492,-0.489 0.457,-0.572 0.388,-0.642C0.326,-0.704 0.236,-0.735 0.121,-0.735L0.117,-0.735ZM0.117,-0.78L0.121,-0.78C0.249,-0.78 0.349,-0.745 0.419,-0.674C0.498,-0.595 0.537,-0.501 0.537,-0.391C0.537,-0.28 0.498,-0.186 0.419,-0.107C0.349,-0.036 0.249,-0.001 0.121,-0.001L0.117,-0.001L0.117,-0L0.073,-0L0.073,-0.781L0.117,-0.781L0.117,-0.78Z" style="fill-rule:nonzero;"/>
    </g>
</svg>
