<?xml version="1.0" encoding="UTF-8" standalone="no"?>
<!DOCTYPE svg PUBLIC "-//W3C//DTD SVG 1.1//EN" "http://www.w3.org/Graphics/SVG/1.1/DTD/svg11.dtd">
<svg width="100%" height="100%" viewBox="0 0 112 112" version="1.1" xmlns="http://www.w3.org/2000/svg" xmlns:xlink="http://www.w3.org/1999/xlink" xml:space="preserve" xmlns:serif="http://www.serif.com/" style="fill-rule:evenodd;clip-rule:evenodd;stroke-linejoin:round;stroke-miterlimit:2;">
    <g transform="matrix(0.32,0,0,0.32,0,0)">
        <g transform="matrix(13.6452,0,0,16.2443,-423,-137.328)">
            <ellipse cx="18.5" cy="19.5" rx="12.5" ry="10.5" style="fill:rgb(7,85,92);"/>
        </g>
        <g transform="matrix(5.69807,4.81818e-18,4.81818e-18,5.97972,-409.67,-504.384)">
            <g transform="matrix(50,-4.33681e-17,0,50,71.9663,132.347)">
                <path d="M0.312,-0.449C0.261,-0.449 0.217,-0.431 0.18,-0.394C0.143,-0.358 0.125,-0.314 0.125,-0.262C0.125,-0.211 0.143,-0.167 0.18,-0.13C0.217,-0.094 0.261,-0.075 0.312,-0.075C0.344,-0.075 0.373,-0.083 0.401,-0.098C0.429,-0.113 0.451,-0.133 0.469,-0.16L0.469,-0.034C0.421,-0.005 0.369,0.01 0.312,0.01C0.274,0.01 0.238,0.003 0.203,-0.01C0.169,-0.024 0.139,-0.043 0.112,-0.068C0.057,-0.12 0.03,-0.185 0.03,-0.262C0.03,-0.34 0.057,-0.405 0.112,-0.457C0.139,-0.482 0.169,-0.501 0.203,-0.514C0.238,-0.528 0.274,-0.534 0.312,-0.534C0.35,-0.534 0.386,-0.528 0.421,-0.514C0.455,-0.501 0.485,-0.482 0.512,-0.457C0.567,-0.405 0.594,-0.34 0.594,-0.262L0.594,-0L0.499,-0L0.499,-0.262C0.499,-0.314 0.481,-0.358 0.444,-0.394C0.407,-0.431 0.363,-0.449 0.312,-0.449Z" style="fill:rgb(219,232,2);fill-rule:nonzero;"/>
            </g>
            <g transform="matrix(50,0,0,50,101,132.333)">
                <path d="M0.197,-0.09L0.227,-0.09C0.261,-0.09 0.295,-0.097 0.329,-0.11C0.362,-0.123 0.393,-0.142 0.42,-0.166C0.483,-0.222 0.515,-0.293 0.515,-0.379C0.515,-0.466 0.484,-0.537 0.422,-0.593C0.395,-0.617 0.365,-0.636 0.331,-0.649C0.296,-0.662 0.262,-0.669 0.227,-0.669L0.154,-0.669L0.154,-0L0.054,-0L0.054,-0.759L0.227,-0.759C0.281,-0.759 0.332,-0.75 0.38,-0.732C0.427,-0.714 0.469,-0.688 0.504,-0.655C0.54,-0.62 0.568,-0.579 0.587,-0.532C0.606,-0.485 0.615,-0.434 0.615,-0.379C0.615,-0.324 0.606,-0.273 0.587,-0.226C0.568,-0.179 0.54,-0.138 0.504,-0.104C0.469,-0.07 0.427,-0.044 0.38,-0.027C0.332,-0.009 0.281,-0 0.227,-0L0.197,-0L0.197,-0.09Z" style="fill:rgb(219,232,2);fill-rule:nonzero;"/>
            </g>
        </g>
    </g>
</svg>
