<?xml version="1.0" encoding="UTF-8" standalone="no"?>
<!DOCTYPE svg PUBLIC "-//W3C//DTD SVG 1.1//EN" "http://www.w3.org/Graphics/SVG/1.1/DTD/svg11.dtd">
<svg width="100%" height="100%" viewBox="0 0 300 85" version="1.1" xmlns="http://www.w3.org/2000/svg" xmlns:xlink="http://www.w3.org/1999/xlink" xml:space="preserve" xmlns:serif="http://www.serif.com/" style="fill-rule:evenodd;clip-rule:evenodd;stroke-linejoin:round;stroke-miterlimit:2;">
    <g transform="matrix(1.06878,0,0,1.06878,-115.944,-143.788)">
        <g transform="matrix(64,0,0,64,110.252,190.629)">
            <path d="M0.163,-0.072L0.161,-0.072L0.161,-0L0.081,-0L0.081,-0.74L0.161,-0.74L0.161,-0.412L0.163,-0.412C0.202,-0.479 0.26,-0.512 0.336,-0.512C0.4,-0.512 0.45,-0.489 0.487,-0.445C0.523,-0.4 0.541,-0.34 0.541,-0.265C0.541,-0.181 0.521,-0.114 0.48,-0.064C0.439,-0.013 0.384,0.012 0.313,0.012C0.247,0.012 0.197,-0.016 0.163,-0.072ZM0.161,-0.274L0.161,-0.204C0.161,-0.163 0.175,-0.128 0.201,-0.099C0.228,-0.07 0.262,-0.056 0.304,-0.056C0.352,-0.056 0.39,-0.074 0.418,-0.111C0.445,-0.148 0.459,-0.2 0.459,-0.266C0.459,-0.322 0.446,-0.365 0.42,-0.397C0.395,-0.429 0.36,-0.444 0.316,-0.444C0.269,-0.444 0.232,-0.428 0.204,-0.396C0.175,-0.363 0.161,-0.323 0.161,-0.274Z" style="fill-rule:nonzero;"/>
        </g>
        <g transform="matrix(64,0,0,64,147.877,190.629)">
            <path d="M0.122,-0.627C0.108,-0.627 0.096,-0.632 0.085,-0.642C0.075,-0.651 0.07,-0.664 0.07,-0.679C0.07,-0.694 0.075,-0.706 0.085,-0.716C0.096,-0.726 0.108,-0.731 0.122,-0.731C0.137,-0.731 0.149,-0.726 0.159,-0.716C0.17,-0.706 0.175,-0.694 0.175,-0.679C0.175,-0.664 0.17,-0.652 0.159,-0.642C0.149,-0.632 0.137,-0.627 0.122,-0.627ZM0.161,-0L0.081,-0L0.081,-0.5L0.161,-0.5L0.161,-0Z" style="fill-rule:nonzero;"/>
        </g>
        <g transform="matrix(64,0,0,64,163.377,190.629)">
            <path d="M0.313,-0.005C0.294,0.006 0.269,0.011 0.238,0.011C0.151,0.011 0.107,-0.038 0.107,-0.136L0.107,-0.432L0.021,-0.432L0.021,-0.5L0.107,-0.5L0.107,-0.622L0.187,-0.648L0.187,-0.5L0.313,-0.5L0.313,-0.432L0.187,-0.432L0.187,-0.15C0.187,-0.116 0.193,-0.092 0.204,-0.078C0.215,-0.064 0.234,-0.057 0.261,-0.057C0.281,-0.057 0.298,-0.062 0.313,-0.073L0.313,-0.005Z" style="fill-rule:nonzero;"/>
        </g>
        <g transform="matrix(64,0,0,64,185.065,190.629)">
            <path d="M0.163,-0.072L0.161,-0.072L0.161,0.23L0.081,0.23L0.081,-0.5L0.161,-0.5L0.161,-0.412L0.163,-0.412C0.202,-0.479 0.26,-0.512 0.336,-0.512C0.4,-0.512 0.451,-0.489 0.487,-0.445C0.523,-0.4 0.541,-0.34 0.541,-0.265C0.541,-0.181 0.521,-0.114 0.48,-0.064C0.439,-0.013 0.384,0.012 0.313,0.012C0.248,0.012 0.198,-0.016 0.163,-0.072ZM0.161,-0.274L0.161,-0.204C0.161,-0.163 0.175,-0.128 0.201,-0.099C0.228,-0.07 0.262,-0.056 0.304,-0.056C0.352,-0.056 0.39,-0.074 0.418,-0.111C0.445,-0.148 0.459,-0.2 0.459,-0.266C0.459,-0.322 0.446,-0.365 0.42,-0.397C0.395,-0.429 0.36,-0.444 0.316,-0.444C0.269,-0.444 0.232,-0.428 0.204,-0.396C0.175,-0.363 0.161,-0.323 0.161,-0.274Z" style="fill-rule:nonzero;"/>
        </g>
        <g transform="matrix(64,0,0,64,221.846,190.629)">
            <path d="M0.439,-0L0.359,-0L0.359,-0.078L0.357,-0.078C0.322,-0.018 0.271,0.012 0.203,0.012C0.153,0.012 0.114,-0.001 0.086,-0.028C0.058,-0.054 0.044,-0.089 0.044,-0.133C0.044,-0.226 0.099,-0.281 0.209,-0.296L0.359,-0.317C0.359,-0.402 0.325,-0.444 0.256,-0.444C0.196,-0.444 0.141,-0.424 0.093,-0.383L0.093,-0.465C0.142,-0.496 0.199,-0.512 0.263,-0.512C0.38,-0.512 0.439,-0.45 0.439,-0.325L0.439,-0ZM0.359,-0.253L0.238,-0.236C0.201,-0.231 0.173,-0.222 0.154,-0.209C0.135,-0.196 0.126,-0.172 0.126,-0.139C0.126,-0.114 0.135,-0.094 0.152,-0.079C0.17,-0.063 0.193,-0.056 0.222,-0.056C0.261,-0.056 0.294,-0.07 0.32,-0.097C0.346,-0.125 0.359,-0.16 0.359,-0.203L0.359,-0.253Z" style="fill-rule:nonzero;"/>
        </g>
        <g transform="matrix(64,0,0,64,254.409,190.629)">
            <path d="M0.422,-0.023C0.383,0 0.338,0.012 0.285,0.012C0.214,0.012 0.156,-0.011 0.113,-0.058C0.069,-0.104 0.047,-0.164 0.047,-0.238C0.047,-0.321 0.07,-0.387 0.118,-0.437C0.165,-0.487 0.228,-0.512 0.307,-0.512C0.351,-0.512 0.389,-0.504 0.423,-0.487L0.423,-0.405C0.386,-0.431 0.346,-0.444 0.304,-0.444C0.253,-0.444 0.211,-0.426 0.178,-0.389C0.145,-0.353 0.129,-0.305 0.129,-0.245C0.129,-0.187 0.144,-0.14 0.175,-0.106C0.206,-0.073 0.247,-0.056 0.299,-0.056C0.342,-0.056 0.383,-0.07 0.422,-0.099L0.422,-0.023Z" style="fill-rule:nonzero;"/>
        </g>
        <g transform="matrix(64,0,0,64,283.971,190.629)">
            <path d="M0.496,-0L0.384,-0L0.163,-0.24L0.161,-0.24L0.161,-0L0.081,-0L0.081,-0.74L0.161,-0.74L0.161,-0.271L0.163,-0.271L0.373,-0.5L0.478,-0.5L0.246,-0.259L0.496,-0Z" style="fill-rule:nonzero;"/>
        </g>
        <g transform="matrix(64,0,0,64,318.346,190.629)">
            <path d="M0.109,0.011C0.094,0.011 0.081,0.005 0.071,-0.005C0.06,-0.016 0.055,-0.029 0.055,-0.044C0.055,-0.059 0.06,-0.072 0.071,-0.083C0.081,-0.094 0.094,-0.099 0.109,-0.099C0.124,-0.099 0.137,-0.094 0.148,-0.083C0.159,-0.072 0.164,-0.059 0.164,-0.044C0.164,-0.029 0.159,-0.016 0.148,-0.005C0.137,0.005 0.124,0.011 0.109,0.011Z" style="fill:rgb(199,211,1);fill-rule:nonzero;"/>
        </g>
        <g transform="matrix(64,0,0,64,332.221,190.629)">
            <path d="M0.122,-0.627C0.108,-0.627 0.096,-0.632 0.085,-0.642C0.075,-0.651 0.07,-0.664 0.07,-0.679C0.07,-0.694 0.075,-0.706 0.085,-0.716C0.096,-0.726 0.108,-0.731 0.122,-0.731C0.137,-0.731 0.149,-0.726 0.159,-0.716C0.17,-0.706 0.175,-0.694 0.175,-0.679C0.175,-0.664 0.17,-0.652 0.159,-0.642C0.149,-0.632 0.137,-0.627 0.122,-0.627ZM0.161,-0L0.081,-0L0.081,-0.5L0.161,-0.5L0.161,-0Z" style="fill:rgb(199,211,1);fill-rule:nonzero;"/>
        </g>
        <g transform="matrix(64,0,0,64,347.721,190.629)">
            <path d="M0.29,0.012C0.216,0.012 0.157,-0.012 0.113,-0.058C0.069,-0.105 0.047,-0.167 0.047,-0.244C0.047,-0.328 0.07,-0.394 0.116,-0.441C0.162,-0.488 0.224,-0.512 0.302,-0.512C0.376,-0.512 0.434,-0.489 0.476,-0.443C0.518,-0.397 0.539,-0.333 0.539,-0.252C0.539,-0.172 0.517,-0.108 0.471,-0.06C0.426,-0.012 0.366,0.012 0.29,0.012ZM0.296,-0.444C0.244,-0.444 0.204,-0.427 0.174,-0.392C0.144,-0.357 0.129,-0.309 0.129,-0.247C0.129,-0.188 0.144,-0.141 0.174,-0.107C0.205,-0.073 0.245,-0.056 0.296,-0.056C0.348,-0.056 0.387,-0.072 0.415,-0.106C0.443,-0.139 0.457,-0.187 0.457,-0.249C0.457,-0.312 0.443,-0.36 0.415,-0.394C0.387,-0.427 0.348,-0.444 0.296,-0.444Z" style="fill:rgb(199,211,1);fill-rule:nonzero;"/>
        </g>
    </g>
</svg>
