<?xml version="1.0" encoding="UTF-8" standalone="no"?>
<!DOCTYPE svg PUBLIC "-//W3C//DTD SVG 1.1//EN" "http://www.w3.org/Graphics/SVG/1.1/DTD/svg11.dtd">
<svg width="100%" height="100%" viewBox="0 0 167 42" version="1.1" xmlns="http://www.w3.org/2000/svg" xmlns:xlink="http://www.w3.org/1999/xlink" xml:space="preserve" xmlns:serif="http://www.serif.com/" style="fill-rule:evenodd;clip-rule:evenodd;stroke-linejoin:round;stroke-miterlimit:2;">
    <g transform="matrix(2.08333,0,0,2.08333,0,0)">
        <g transform="matrix(0.741728,0,0,0.741728,-14.9193,-9.12486)">
            <g transform="matrix(24,0,0,24,17.9048,31.9762)">
                <path d="M0.162,-0.079C0.202,-0.02 0.272,0.012 0.339,0.012C0.485,0.012 0.581,-0.096 0.581,-0.234C0.581,-0.372 0.485,-0.48 0.339,-0.48C0.272,-0.48 0.202,-0.448 0.162,-0.387L0.16,-0.387L0.16,-0.756L0.092,-0.756L0.092,-0L0.16,-0L0.16,-0.079L0.162,-0.079ZM0.509,-0.234C0.509,-0.13 0.445,-0.046 0.332,-0.046C0.227,-0.046 0.152,-0.127 0.152,-0.234C0.152,-0.341 0.227,-0.423 0.332,-0.423C0.445,-0.423 0.509,-0.338 0.509,-0.234Z" style="fill-rule:nonzero;"/>
            </g>
            <g transform="matrix(24,0,0,24,33.1928,31.9762)">
                <path d="M0.159,-0.468L0.091,-0.468L0.091,-0L0.159,-0L0.159,-0.468ZM0.173,-0.648C0.173,-0.676 0.149,-0.696 0.125,-0.696C0.101,-0.696 0.077,-0.676 0.077,-0.648C0.077,-0.62 0.101,-0.6 0.125,-0.6C0.149,-0.6 0.173,-0.62 0.173,-0.648Z" style="fill-rule:nonzero;"/>
            </g>
            <g transform="matrix(24,0,0,24,39.1928,31.9762)">
                <path d="M0.301,-0.468L0.169,-0.468L0.169,-0.6L0.101,-0.6L0.101,-0.468L0.004,-0.468L0.004,-0.411L0.101,-0.411L0.101,-0.119C0.101,-0.016 0.171,0.006 0.221,0.006C0.252,0.006 0.277,0.001 0.301,-0.008L0.298,-0.067C0.28,-0.058 0.258,-0.052 0.239,-0.052C0.198,-0.052 0.169,-0.068 0.169,-0.138L0.169,-0.411L0.301,-0.411L0.301,-0.468Z" style="fill-rule:nonzero;"/>
            </g>
            <g transform="matrix(24,0,0,24,46.8008,31.9762)">
                <path d="M0.158,-0.079L0.161,-0.079C0.2,-0.021 0.27,0.012 0.337,0.012C0.483,0.012 0.579,-0.096 0.579,-0.234C0.579,-0.372 0.483,-0.48 0.337,-0.48C0.27,-0.48 0.2,-0.448 0.161,-0.387L0.158,-0.387L0.158,-0.468L0.09,-0.468L0.09,0.24L0.158,0.24L0.158,-0.079ZM0.507,-0.234C0.507,-0.13 0.443,-0.046 0.33,-0.046C0.225,-0.046 0.15,-0.127 0.15,-0.234C0.15,-0.341 0.225,-0.423 0.33,-0.423C0.443,-0.423 0.507,-0.338 0.507,-0.234Z" style="fill-rule:nonzero;"/>
            </g>
            <g transform="matrix(24,0,0,24,62.0408,31.9762)">
                <path d="M0.385,-0.287C0.214,-0.287 0.055,-0.274 0.055,-0.13C0.055,-0.026 0.146,0.012 0.217,0.012C0.292,0.012 0.344,-0.014 0.387,-0.076L0.389,-0.076C0.389,-0.051 0.392,-0.023 0.396,-0L0.457,-0C0.452,-0.026 0.449,-0.069 0.449,-0.105L0.449,-0.31C0.449,-0.424 0.368,-0.48 0.267,-0.48C0.187,-0.48 0.121,-0.451 0.083,-0.413L0.121,-0.368C0.154,-0.401 0.205,-0.423 0.26,-0.423C0.341,-0.423 0.385,-0.383 0.385,-0.302L0.385,-0.287ZM0.385,-0.234L0.385,-0.199C0.385,-0.116 0.331,-0.044 0.235,-0.044C0.182,-0.044 0.125,-0.066 0.125,-0.133C0.125,-0.222 0.254,-0.234 0.365,-0.234L0.385,-0.234Z" style="fill-rule:nonzero;"/>
            </g>
            <g transform="matrix(24,0,0,24,74.8568,31.9762)">
                <path d="M0.48,-0.399C0.44,-0.453 0.369,-0.48 0.306,-0.48C0.155,-0.48 0.056,-0.375 0.056,-0.234C0.056,-0.093 0.155,0.012 0.306,0.012C0.387,0.012 0.444,-0.02 0.484,-0.069L0.433,-0.107C0.406,-0.071 0.365,-0.046 0.306,-0.046C0.197,-0.046 0.128,-0.128 0.128,-0.234C0.128,-0.341 0.198,-0.423 0.307,-0.423C0.358,-0.423 0.405,-0.397 0.427,-0.361L0.48,-0.399Z" style="fill-rule:nonzero;"/>
            </g>
            <g transform="matrix(24,0,0,24,86.8568,31.9762)">
                <path d="M0.16,-0.756L0.092,-0.756L0.092,-0L0.16,-0L0.16,-0.246L0.163,-0.246L0.401,-0L0.501,-0L0.241,-0.254L0.477,-0.468L0.379,-0.468L0.163,-0.257L0.16,-0.257L0.16,-0.756Z" style="fill-rule:nonzero;"/>
            </g>
            <g transform="matrix(24,0,0,24,99.0968,31.9762)">
                <path d="M0.184,-0.048C0.184,-0.076 0.162,-0.102 0.13,-0.102C0.098,-0.102 0.076,-0.076 0.076,-0.048C0.076,-0.02 0.098,0.006 0.13,0.006C0.162,0.006 0.184,-0.02 0.184,-0.048Z" style="fill:rgb(199,211,1);fill-rule:nonzero;"/>
            </g>
            <g transform="matrix(24,0,0,24,105.337,31.9762)">
                <path d="M0.159,-0.468L0.091,-0.468L0.091,-0L0.159,-0L0.159,-0.468ZM0.173,-0.648C0.173,-0.676 0.149,-0.696 0.125,-0.696C0.101,-0.696 0.077,-0.676 0.077,-0.648C0.077,-0.62 0.101,-0.6 0.125,-0.6C0.149,-0.6 0.173,-0.62 0.173,-0.648Z" style="fill:rgb(199,211,1);fill-rule:nonzero;"/>
            </g>
            <g transform="matrix(24,0,0,24,111.337,31.9762)">
                <path d="M0.555,-0.234C0.555,-0.375 0.451,-0.48 0.305,-0.48C0.16,-0.48 0.056,-0.375 0.056,-0.234C0.056,-0.093 0.16,0.012 0.305,0.012C0.451,0.012 0.555,-0.093 0.555,-0.234ZM0.483,-0.234C0.483,-0.129 0.414,-0.046 0.305,-0.046C0.197,-0.046 0.128,-0.129 0.128,-0.234C0.128,-0.339 0.197,-0.423 0.305,-0.423C0.414,-0.423 0.483,-0.339 0.483,-0.234Z" style="fill:rgb(199,211,1);fill-rule:nonzero;"/>
            </g>
        </g>
    </g>
</svg>
