<?xml version="1.0" encoding="UTF-8" standalone="no"?>
<!DOCTYPE svg PUBLIC "-//W3C//DTD SVG 1.1//EN" "http://www.w3.org/Graphics/SVG/1.1/DTD/svg11.dtd">
<svg width="100%" height="100%" viewBox="0 0 35 35" version="1.1" xmlns="http://www.w3.org/2000/svg" xmlns:xlink="http://www.w3.org/1999/xlink" xml:space="preserve" xmlns:serif="http://www.serif.com/" style="fill-rule:evenodd;clip-rule:evenodd;stroke-linejoin:round;stroke-miterlimit:2;">
    <g transform="matrix(0.0135832,0,0,0.0135832,0.563189,0.663639)">
        <g transform="matrix(2.62258,0,0,2.62258,-2605.68,-1286.05)">
            <path d="M1469,498C1725.64,498 1934,706.36 1934,963C1934,1219.64 1725.64,1428 1469,1428C1212.36,1428 1004,1219.64 1004,963C1004,706.36 1212.36,498 1469,498ZM1469,547.977C1698.06,547.977 1884.02,733.943 1884.02,963C1884.02,1192.06 1698.06,1378.02 1469,1378.02C1239.94,1378.02 1053.98,1192.06 1053.98,963C1053.98,733.943 1239.94,547.977 1469,547.977Z" style="fill:rgb(202,240,71);"/>
        </g>
        <g transform="matrix(1328.12,-809.489,809.489,1328.12,1151.77,1433.58)">
            <path d="M0.327,-0.075C0.379,-0.075 0.423,-0.094 0.459,-0.13C0.496,-0.167 0.514,-0.211 0.514,-0.262C0.514,-0.314 0.496,-0.358 0.459,-0.394C0.423,-0.431 0.379,-0.449 0.327,-0.449C0.297,-0.449 0.267,-0.442 0.239,-0.426C0.21,-0.411 0.187,-0.39 0.17,-0.364L0.17,-0.49C0.217,-0.52 0.269,-0.534 0.327,-0.534C0.365,-0.534 0.401,-0.528 0.436,-0.514C0.47,-0.501 0.5,-0.482 0.527,-0.457C0.582,-0.405 0.609,-0.34 0.609,-0.262C0.609,-0.185 0.582,-0.12 0.527,-0.068C0.5,-0.043 0.47,-0.024 0.436,-0.01C0.401,0.003 0.365,0.01 0.327,0.01C0.289,0.01 0.253,0.003 0.219,-0.01C0.184,-0.024 0.154,-0.043 0.127,-0.068C0.072,-0.12 0.045,-0.185 0.045,-0.262L0.045,-0.759L0.14,-0.759L0.14,-0.262C0.14,-0.21 0.158,-0.166 0.195,-0.13C0.231,-0.093 0.275,-0.075 0.327,-0.075Z" style="fill:rgb(202,240,71);fill-rule:nonzero;"/>
        </g>
        <g transform="matrix(1382.74,712.19,-712.19,1382.74,733.884,1884.8)">
            <path d="M0.327,-0.449C0.276,-0.449 0.232,-0.431 0.195,-0.394C0.158,-0.358 0.14,-0.314 0.14,-0.262L0.14,0.16L0.045,0.16L0.045,-0.262C0.045,-0.299 0.052,-0.335 0.066,-0.368C0.08,-0.402 0.101,-0.431 0.127,-0.456C0.154,-0.481 0.184,-0.5 0.219,-0.514C0.253,-0.527 0.289,-0.534 0.327,-0.534C0.365,-0.534 0.401,-0.528 0.436,-0.514C0.47,-0.501 0.5,-0.482 0.527,-0.457C0.582,-0.405 0.609,-0.34 0.609,-0.262C0.609,-0.185 0.582,-0.12 0.527,-0.068C0.5,-0.043 0.47,-0.024 0.436,-0.01C0.401,0.003 0.365,0.01 0.327,0.01C0.269,0.01 0.216,-0.005 0.17,-0.034L0.17,-0.16C0.187,-0.134 0.209,-0.113 0.237,-0.098C0.266,-0.083 0.296,-0.075 0.327,-0.075C0.379,-0.075 0.423,-0.094 0.459,-0.13C0.496,-0.167 0.514,-0.211 0.514,-0.262C0.514,-0.314 0.496,-0.358 0.459,-0.394C0.423,-0.431 0.379,-0.449 0.327,-0.449Z" style="fill:rgb(202,240,71);fill-rule:nonzero;"/>
        </g>
    </g>
</svg>
