<?xml version="1.0" encoding="UTF-8" standalone="no"?>
<!DOCTYPE svg PUBLIC "-//W3C//DTD SVG 1.1//EN" "http://www.w3.org/Graphics/SVG/1.1/DTD/svg11.dtd">
<svg width="100%" height="100%" viewBox="0 0 35 35" version="1.1" xmlns="http://www.w3.org/2000/svg" xmlns:xlink="http://www.w3.org/1999/xlink" xml:space="preserve" xmlns:serif="http://www.serif.com/" style="fill-rule:evenodd;clip-rule:evenodd;stroke-linejoin:round;stroke-miterlimit:2;">
    <g transform="matrix(1.32518,0,0,1.57759,-7.01575,-13.263)">
        <g>
            <ellipse cx="18.5" cy="19.5" rx="12.5" ry="10.5" style="fill:rgb(7,85,92);"/>
        </g>
    </g>
    <g transform="matrix(26,0,0,26,12.0713,26.1221)">
        <path d="M0.619,-0.171L0.619,-0.524L0.714,-0.524L0.714,-0.171C0.714,-0.12 0.696,-0.077 0.659,-0.042C0.622,-0.008 0.577,0.01 0.523,0.01C0.496,0.01 0.469,0.003 0.442,-0.011C0.415,-0.025 0.395,-0.043 0.38,-0.065C0.365,-0.043 0.344,-0.026 0.317,-0.011C0.289,0.003 0.262,0.01 0.236,0.01C0.183,0.01 0.137,-0.008 0.1,-0.042C0.063,-0.077 0.045,-0.12 0.045,-0.171L0.045,-0.524L0.14,-0.524L0.14,-0.171C0.14,-0.145 0.149,-0.122 0.168,-0.103C0.187,-0.085 0.21,-0.075 0.236,-0.075C0.263,-0.075 0.286,-0.084 0.304,-0.103C0.323,-0.122 0.332,-0.144 0.332,-0.171L0.332,-0.524L0.427,-0.524L0.427,-0.171C0.427,-0.144 0.437,-0.122 0.455,-0.103C0.474,-0.084 0.497,-0.075 0.523,-0.075C0.55,-0.075 0.572,-0.085 0.591,-0.103C0.61,-0.122 0.619,-0.145 0.619,-0.171Z" style="fill:rgb(202,240,71);fill-rule:nonzero;"/>
    </g>
    <g transform="matrix(27.0783,0,0,27.0783,4.33259,26.557)">
        <path d="M0.045,-0.669L0.14,-0.669L0.14,-0.524L0.292,-0.524L0.292,-0.439L0.14,-0.439L0.14,-0.146C0.14,-0.129 0.147,-0.114 0.161,-0.103C0.175,-0.091 0.193,-0.085 0.214,-0.085L0.292,-0.085L0.292,-0L0.204,-0C0.157,-0 0.119,-0.014 0.089,-0.041C0.06,-0.068 0.045,-0.102 0.045,-0.144L0.045,-0.669Z" style="fill:rgb(202,240,71);fill-rule:nonzero;"/>
    </g>
</svg>
