<?xml version="1.0" encoding="UTF-8" standalone="no"?>
<!DOCTYPE svg PUBLIC "-//W3C//DTD SVG 1.1//EN" "http://www.w3.org/Graphics/SVG/1.1/DTD/svg11.dtd">
<svg width="100%" height="100%" viewBox="0 0 35 35" version="1.1" xmlns="http://www.w3.org/2000/svg" xmlns:xlink="http://www.w3.org/1999/xlink" xml:space="preserve" xmlns:serif="http://www.serif.com/" style="fill-rule:evenodd;clip-rule:evenodd;stroke-linejoin:round;stroke-miterlimit:2;">
    <g transform="matrix(0.0135832,0,0,0.0135832,0.563189,0.663639)">
        <g transform="matrix(97.56,0,0,116.143,-557.965,-1025.29)">
            <ellipse cx="18.5" cy="19.5" rx="12.5" ry="10.5" style="fill:rgb(7,85,92);"/>
        </g>
        <g transform="matrix(1911.21,-1164.88,1164.88,1911.21,1023.07,2178.32)">
            <path d="M0.327,-0.075C0.379,-0.075 0.423,-0.094 0.459,-0.13C0.496,-0.167 0.514,-0.211 0.514,-0.262C0.514,-0.314 0.496,-0.358 0.459,-0.394C0.423,-0.431 0.379,-0.449 0.327,-0.449C0.297,-0.449 0.267,-0.442 0.239,-0.426C0.21,-0.411 0.187,-0.39 0.17,-0.364L0.17,-0.49C0.217,-0.52 0.269,-0.534 0.327,-0.534C0.365,-0.534 0.401,-0.528 0.436,-0.514C0.47,-0.501 0.5,-0.482 0.527,-0.457C0.582,-0.405 0.609,-0.34 0.609,-0.262C0.609,-0.185 0.582,-0.12 0.527,-0.068C0.5,-0.043 0.47,-0.024 0.436,-0.01C0.401,0.003 0.365,0.01 0.327,0.01C0.289,0.01 0.253,0.003 0.219,-0.01C0.184,-0.024 0.154,-0.043 0.127,-0.068C0.072,-0.12 0.045,-0.185 0.045,-0.262L0.045,-0.759L0.14,-0.759L0.14,-0.262C0.14,-0.21 0.158,-0.166 0.195,-0.13C0.231,-0.093 0.275,-0.075 0.327,-0.075Z" style="fill:rgb(202,240,71);fill-rule:nonzero;"/>
        </g>
    </g>
</svg>
