<?xml version="1.0" encoding="UTF-8" standalone="no"?>
<!DOCTYPE svg PUBLIC "-//W3C//DTD SVG 1.1//EN" "http://www.w3.org/Graphics/SVG/1.1/DTD/svg11.dtd">
<svg width="100%" height="100%" viewBox="0 0 35 35" version="1.1" xmlns="http://www.w3.org/2000/svg" xmlns:xlink="http://www.w3.org/1999/xlink" xml:space="preserve" xmlns:serif="http://www.serif.com/" style="fill-rule:evenodd;clip-rule:evenodd;stroke-linejoin:round;stroke-miterlimit:2;">
    <g transform="matrix(1.32518,0,0,1.57759,-7.01575,-13.263)">
        <g>
            <ellipse cx="18.5" cy="19.5" rx="12.5" ry="10.5" style="fill:rgb(7,85,92);"/>
        </g>
    </g>
    <g transform="matrix(1,0,0,1,-0.366765,11.7444)">
        <g transform="matrix(30.9709,0,0,31.726,6.56096,14.0667)">
            <path d="M0.292,-0.185L0.122,-0.257C0.06,-0.283 0.029,-0.329 0.029,-0.396C0.029,-0.431 0.042,-0.461 0.068,-0.486C0.095,-0.511 0.127,-0.524 0.165,-0.524L0.404,-0.524L0.404,-0.439L0.171,-0.439C0.158,-0.439 0.147,-0.435 0.138,-0.427C0.129,-0.418 0.124,-0.408 0.124,-0.396C0.124,-0.381 0.127,-0.369 0.134,-0.36C0.14,-0.351 0.151,-0.343 0.167,-0.336L0.332,-0.266C0.398,-0.238 0.431,-0.192 0.431,-0.128C0.431,-0.092 0.417,-0.062 0.389,-0.037C0.362,-0.012 0.327,-0 0.286,-0L0.03,-0L0.03,-0.085L0.28,-0.085C0.295,-0.085 0.309,-0.089 0.32,-0.097C0.33,-0.106 0.336,-0.116 0.336,-0.128C0.336,-0.154 0.321,-0.173 0.292,-0.185Z" style="fill:rgb(202,240,71);fill-rule:nonzero;"/>
        </g>
        <g transform="matrix(26,0,0,24.8482,20.6885,14.0667)">
            <path d="M0.045,-0.669L0.14,-0.669L0.14,-0.524L0.292,-0.524L0.292,-0.439L0.14,-0.439L0.14,-0.146C0.14,-0.129 0.147,-0.114 0.161,-0.103C0.175,-0.091 0.193,-0.085 0.214,-0.085L0.292,-0.085L0.292,-0L0.204,-0C0.157,-0 0.119,-0.014 0.089,-0.041C0.06,-0.068 0.045,-0.102 0.045,-0.144L0.045,-0.669Z" style="fill:rgb(202,240,71);fill-rule:nonzero;"/>
        </g>
    </g>
</svg>
