<?xml version="1.0" encoding="UTF-8" standalone="no"?>
<!DOCTYPE svg PUBLIC "-//W3C//DTD SVG 1.1//EN" "http://www.w3.org/Graphics/SVG/1.1/DTD/svg11.dtd">
<svg width="100%" height="100%" viewBox="0 0 2500 2500" version="1.1" xmlns="http://www.w3.org/2000/svg" xmlns:xlink="http://www.w3.org/1999/xlink" xml:space="preserve" xmlns:serif="http://www.serif.com/" style="fill-rule:evenodd;clip-rule:evenodd;stroke-linejoin:round;stroke-miterlimit:2;">
    <g transform="matrix(1.31412,0,0,1.31412,-405.468,-403.145)">
        <g transform="matrix(1.9957,0,0,1.9957,-1674.29,-671.858)">
            <path d="M1469,498C1725.64,498 1934,706.36 1934,963C1934,1219.64 1725.64,1428 1469,1428C1212.36,1428 1004,1219.64 1004,963C1004,706.36 1212.36,498 1469,498ZM1469,547.977C1698.06,547.977 1884.02,733.943 1884.02,963C1884.02,1192.06 1698.06,1378.02 1469,1378.02C1239.94,1378.02 1053.98,1192.06 1053.98,963C1053.98,733.943 1239.94,547.977 1469,547.977Z" style="fill:rgb(165,207,78);"/>
        </g>
        <g transform="matrix(1.75461,-1.06944,1.06944,1.75461,-659.652,572.496)">
            <text x="526.488px" y="771.429px" style="font-family:'Belgium', fantasy;font-size:576px;fill:rgb(165,207,78);">b</text>
        </g>
        <g transform="matrix(1.82677,0.940892,-0.940892,1.82677,535.189,-174.86)">
            <text x="526.488px" y="771.429px" style="font-family:'Belgium', fantasy;font-size:576px;fill:rgb(165,207,78);">p</text>
        </g>
    </g>
</svg>
