<?xml version="1.0" encoding="UTF-8" standalone="no"?>
<!DOCTYPE svg PUBLIC "-//W3C//DTD SVG 1.1//EN" "http://www.w3.org/Graphics/SVG/1.1/DTD/svg11.dtd">
<svg width="100%" height="100%" viewBox="0 0 1667 1667" version="1.1" xmlns="http://www.w3.org/2000/svg" xmlns:xlink="http://www.w3.org/1999/xlink" xml:space="preserve" xmlns:serif="http://www.serif.com/" style="fill-rule:evenodd;clip-rule:evenodd;stroke-linejoin:round;stroke-miterlimit:2;">
    <g transform="matrix(3.33333,0,0,3.33333,0,0)">
        <g id="Ebene1" transform="matrix(1.20255,-0.159407,0.159407,1.20255,-85.5362,-42.3757)">
            <g transform="matrix(18.5729,2.46198,-1.59304,12.0177,409.408,-2551.94)">
                <path d="M22,218.72C22,217.219 21.211,216 20.24,216L1.76,216C0.789,216 0,217.219 0,218.72L0,247.28C0,248.781 0.789,250 1.76,250L20.24,250C21.211,250 22,248.781 22,247.28L22,218.72Z" style="fill:white;"/>
            </g>
            <g transform="matrix(2.18555,0.289712,-0.333686,2.51729,66.6945,16.3107)">
                <path d="M159,36L30,36L30,148L159,148L159,36ZM38.413,43.304L38.413,140.696L150.587,140.696L150.587,43.304L38.413,43.304Z" style="fill:rgb(64,64,64);"/>
            </g>
            <g transform="matrix(1.54167,0.20436,-0.235379,1.77567,118.497,92.605)">
                <rect x="30" y="36" width="129" height="112" style="fill:rgb(219,232,0);fill-opacity:0.3;"/>
            </g>
            <g transform="matrix(0.770834,0.10218,-0.117689,0.887836,137.385,127.632)">
                <rect x="30" y="36" width="129" height="112" style="fill:rgb(219,232,0);fill-opacity:0.3;"/>
            </g>
            <g transform="matrix(0.770834,0.10218,-0.117689,0.887836,223.642,240.251)">
                <rect x="30" y="36" width="129" height="112" style="fill:rgb(219,232,0);fill-opacity:0.3;"/>
            </g>
        </g>
    </g>
</svg>
