<?xml version="1.0" encoding="UTF-8" standalone="no"?><!DOCTYPE svg PUBLIC "-//W3C//DTD SVG 1.1//EN" "http://www.w3.org/Graphics/SVG/1.1/DTD/svg11.dtd"><svg width="100%" height="100%" viewBox="0 0 1146 1146" version="1.1" xmlns="http://www.w3.org/2000/svg" xmlns:xlink="http://www.w3.org/1999/xlink" xml:space="preserve" xmlns:serif="http://www.serif.com/" style="fill-rule:evenodd;clip-rule:evenodd;stroke-linejoin:round;stroke-miterlimit:20;"><path d="M962.5,105.208l-779.167,0l0,935.417l779.167,0l0,-935.417Zm-16.667,16.667l0,902.083c-102.243,0 -643.59,0 -745.833,0c0,0 0,-902.083 0,-902.083c-0,0 745.833,0 745.833,0l0,0Z" style="fill:#080605;"/><rect x="381.25" y="255.208" width="383.333" height="635.417" style="fill:none;stroke:#66bc45;stroke-width:8.33px;stroke-dasharray:0,16.67,75,0;"/><g id="Ebene1"></g><path d="M84.275,602.911l7.573,0l-0,-16.166c-0,-6.084 0.166,-8.25 0.917,-10.584c1.584,-5.083 5.836,-8.333 10.839,-8.333c4.335,0 7.337,2.333 8.504,6.75c0.584,2.083 0.75,4.5 0.75,10.667l0,17.666l7.573,0l0,-21.416c0,-5.334 -0.416,-8.5 -1.498,-11.334c-2.164,-5.578 -7.075,-8.739 -13.745,-8.739c-6.17,-0 -10.756,2.496 -13.59,7.323c0.166,-1.333 0.25,-3.579 0.25,-6.408l-0,-19.415l-7.573,-0l-0,59.989Z" style="fill:#1a1a1a;fill-rule:nonzero;"/><path d="M553.836,80.186l8.666,0l6.748,-21.073c1.833,-5.757 2.583,-8.592 3.666,-13.177c0.917,4.168 2.167,8.503 3.75,13.339l6.999,20.911l8.748,0l12.998,-40.739l-7.499,-0l-6.832,22.162c-1.166,3.835 -2.416,8.42 -2.916,11.754c-0.917,-4.085 -2.25,-8.836 -3.166,-11.504l-7.416,-22.412l-8.832,-0l-7.998,25.413c-1.25,3.918 -1.417,4.502 -2,7.086l-0.333,1.417c-0.417,-3.001 -1.167,-5.669 -3.083,-12.004l-6.666,-21.912l-8.248,-0l13.414,40.739Z" style="fill:#1a1a1a;fill-rule:nonzero;"/><g><path d="M258.01,602.911l7.573,0l0,-18c0,-5.833 0.167,-7.083 1.168,-9.75c1.667,-4.416 5.419,-7.333 9.589,-7.333c3.251,0 5.753,2 6.753,5.583c0.501,1.667 0.584,3.5 0.584,8.584l0,20.916l7.573,0l0,-17.25c0,-5.666 0.083,-7.083 0.75,-9.416c1.335,-5 5.17,-8.417 9.589,-8.417c3.586,0 6.004,2 7.004,5.667c0.501,1.75 0.667,4.083 0.667,9.416l0,20l7.573,0l0,-21.416c0,-5.75 -0.333,-8.834 -1.082,-11.25c-1.83,-5.662 -6.407,-8.823 -12.577,-8.823c-6.087,-0 -10.757,2.829 -13.422,8.156c-1.748,-5.244 -5.908,-8.156 -11.995,-8.156c-5.837,-0 -10.673,2.745 -12.839,7.323l-0.417,-6.573l-6.991,-0c0.334,6.665 0.5,11.414 0.5,17.745l0,22.994Z" style="fill:#1a1a1a;fill-rule:nonzero;"/><rect x="327.844" y="542.922" width="7.573" height="59.99" style="fill:#1a1a1a;fill-rule:nonzero;"/></g><g><path d="M803.844,602.911l7.573,0l-0,-18c-0,-5.833 0.166,-7.083 1.167,-9.75c1.668,-4.416 5.42,-7.333 9.589,-7.333c3.252,0 5.753,2 6.754,5.583c0.5,1.667 0.583,3.5 0.583,8.584l0,20.916l7.573,0l0,-17.25c0,-5.666 0.084,-7.083 0.751,-9.416c1.334,-5 5.169,-8.417 9.589,-8.417c3.585,0 6.003,2 7.004,5.667c0.5,1.75 0.667,4.083 0.667,9.416l-0,20l7.573,0l-0,-21.416c-0,-5.75 -0.333,-8.834 -1.082,-11.25c-1.831,-5.662 -6.408,-8.823 -12.578,-8.823c-6.087,-0 -10.756,2.829 -13.422,8.156c-1.747,-5.244 -5.908,-8.156 -11.995,-8.156c-5.836,-0 -10.672,2.745 -12.839,7.323l-0.416,-6.573l-6.991,-0c0.333,6.665 0.5,11.414 0.5,17.745l-0,22.994Z" style="fill:#1a1a1a;fill-rule:nonzero;"/><path d="M874.177,602.911l7.573,0l0,-15.995c0,-6.082 0.167,-7.832 0.917,-10.081c1.666,-5.34 5.583,-8.507 10.5,-8.507c1.25,0 2.083,0.167 3.583,0.75l0,-6.906c-1.75,-0.5 -2.583,-0.583 -4.083,-0.583c-5.167,-0 -9.25,2.745 -11.583,7.822l-0.416,-7.239l-6.991,-0c0.333,7.581 0.5,12.913 0.5,15.913l0,24.826Z" style="fill:#1a1a1a;fill-rule:nonzero;"/></g><g><path d="M526.964,223.745l7.572,-0l0,-18c0,-5.834 0.167,-7.084 1.168,-9.75c1.667,-4.417 5.42,-7.334 9.589,-7.334c3.252,0 5.753,2 6.754,5.584c0.5,1.666 0.583,3.5 0.583,8.583l0,20.917l7.573,-0l0,-17.25c0,-5.667 0.084,-7.084 0.751,-9.417c1.334,-5 5.169,-8.417 9.588,-8.417c3.586,0 6.004,2 7.005,5.667c0.5,1.75 0.667,4.083 0.667,9.417l-0,20l7.572,-0l0,-21.417c0,-5.75 -0.332,-8.833 -1.081,-11.25c-1.831,-5.661 -6.408,-8.823 -12.578,-8.823c-6.087,0 -10.757,2.829 -13.422,8.156c-1.747,-5.244 -5.908,-8.156 -11.995,-8.156c-5.837,0 -10.673,2.746 -12.839,7.323l-0.416,-6.573l-6.991,0c0.333,6.665 0.5,11.414 0.5,17.746l-0,22.994Z" style="fill:#1a1a1a;fill-rule:nonzero;"/><path d="M601.795,218.92c1.831,3.411 5.659,5.325 10.575,5.325c2.166,-0 4.25,-0.333 7,-1.165l-0,-6.492c-2,0.917 -3.334,1.251 -4.917,1.251c-3.333,-0 -5.667,-1.751 -6.25,-4.752c-0.333,-1.584 -0.417,-3.752 -0.417,-8.003l0,-16.173l10.75,0l0,-5.906l-10.75,0l0,-11.75l-7.572,2.584l-0,9.166l-9.417,0l-0,5.906l9.417,0l-0,18.424c-0,6.419 0.416,9.336 1.581,11.585Z" style="fill:#1a1a1a;fill-rule:nonzero;"/></g></svg>