<?xml version="1.0" encoding="UTF-8" standalone="no"?><!DOCTYPE svg PUBLIC "-//W3C//DTD SVG 1.1//EN" "http://www.w3.org/Graphics/SVG/1.1/DTD/svg11.dtd"><svg width="100%" height="100%" viewBox="0 0 1146 1146" version="1.1" xmlns="http://www.w3.org/2000/svg" xmlns:xlink="http://www.w3.org/1999/xlink" xml:space="preserve" xmlns:serif="http://www.serif.com/" style="fill-rule:evenodd;clip-rule:evenodd;stroke-linejoin:round;stroke-miterlimit:20;"><path d="M962.5,105.208l-779.167,0l0,935.417l779.167,0l0,-935.417Zm-16.667,16.667l0,902.083c-102.243,0 -643.59,0 -745.833,0c0,0 0,-902.083 0,-902.083c-0,0 745.833,0 745.833,0l0,0Z" style="fill:#080605;"/><g id="Ebene1"><g><path d="M262.058,635.95l11.617,0l-0,-3.992l-6.25,-0l-0,-49.695l6.25,-0l-0,-4.055l-11.617,-0l-0,57.742Z" style="fill:#1a1a1a;fill-rule:nonzero;"/><rect x="282.62" y="578.208" width="5.68" height="44.992" style="fill:#1a1a1a;fill-rule:nonzero;"/><path d="M294.995,614.455c0,5.564 4.182,9.183 10.62,9.183c4.69,-0 7.941,-1.81 10.255,-5.681c-0.063,1.868 -0.063,2.118 -0.063,2.806c0,0.687 0,1.25 0.063,2.437l5.18,0c-0.188,-2.375 -0.313,-5.625 -0.313,-10.375l0,-6.371c0,-4.561 -0.312,-6.813 -1.248,-8.753c-1.685,-3.559 -5.62,-5.618 -10.935,-5.618c-3.752,-0 -6.879,0.874 -10.251,2.808l0.312,5c3.123,-2.127 5.686,-3.003 9.001,-3.003c5.127,-0 7.566,2.44 7.629,7.695c-1.939,-0.125 -3.064,-0.188 -4.253,-0.188c-10.254,0 -15.997,3.619 -15.997,10.055l0,0.005Zm5.992,-0.067c0,-3.875 3.815,-5.813 11.319,-5.813c1.188,0 2.001,0.063 3.064,0.188c-0,3.062 -0.25,4.5 -0.938,5.937c-1.313,2.75 -4.19,4.438 -7.567,4.438c-3.439,-0 -5.878,-1.938 -5.878,-4.75Z" style="fill:#1a1a1a;fill-rule:nonzero;"/><path d="M329.495,623.2l5.43,0l0,-5.242c1.938,3.621 5.815,5.68 10.504,5.68c8.065,-0 13.246,-6.306 13.246,-15.996c-0,-9.441 -5.181,-15.559 -13.121,-15.559c-4.877,-0 -9.066,2.309 -10.566,5.805c0.062,-0.5 0.062,-0.938 0.124,-1.063c0.063,-1.061 0.063,-1.061 0.063,-2.496l-0,-16.121l-5.68,-0l0,44.992Zm5.805,-15.246c-0,-6.44 3.814,-11.066 9.129,-11.066c4.877,-0 8.254,4.564 8.254,11.004c-0,6.314 -3.565,10.941 -8.504,10.941c-5.065,-0 -8.879,-4.689 -8.879,-10.879Z" style="fill:#1a1a1a;fill-rule:nonzero;"/><path d="M363.558,607.641c-0,10.003 6.054,16.372 15.621,16.372c3.44,-0 6.378,-0.687 9.811,-2.247l0,-5.435c-3.183,1.939 -6.246,2.877 -9.498,2.877c-5.628,-0 -9.504,-3.753 -10.255,-9.82l22,-0c0.063,-0.437 0.063,-0.874 0.063,-0.999c-0,-10.5 -4.869,-16.556 -13.309,-16.556c-8.691,-0 -14.433,6.306 -14.433,15.808Zm5.742,-2.683c0.75,-5.255 4.002,-8.633 8.504,-8.633c2.563,0 4.877,1.251 6.253,3.378c0.875,1.314 1.188,2.565 1.563,5.255l-16.32,-0Z" style="fill:#1a1a1a;fill-rule:nonzero;"/><rect x="397.87" y="578.208" width="5.68" height="44.992" style="fill:#1a1a1a;fill-rule:nonzero;"/><path d="M427.433,585.325l6.179,0l0,-6.242l-6.179,-0l-0,6.242Zm0.375,37.875l5.679,0l0,-30.555l-5.679,0l-0,30.555Z" style="fill:#1a1a1a;fill-rule:nonzero;"/><path d="M442.495,623.2l5.68,0l-0,-11.187c-0,-5.563 0.125,-6.875 0.688,-8.813c1.188,-3.875 4.314,-6.312 8.066,-6.312c3.252,-0 5.565,1.812 6.441,5c0.438,1.562 0.5,2.812 0.5,7.562l0,13.75l5.68,0l-0,-14.25c-0,-5 -0.187,-7.5 -0.812,-9.437c-1.435,-4.747 -5.243,-7.43 -10.558,-7.43c-4.565,-0 -8.129,1.872 -10.505,5.367l-0.249,-4.805l-5.306,0c0.188,3.812 0.375,8.936 0.375,15.434l0,15.121Z" style="fill:#1a1a1a;fill-rule:nonzero;"/><path d="M484.367,623.2l6.498,0l10.997,-30.555l-5.623,0l-7.186,20.375l-0.75,2.313c-0.25,0.812 -0.375,1.437 -0.562,2.562c-0.187,-1.437 -0.125,-1.687 -2.249,-7.625l-6.249,-17.625l-6.123,0l11.247,30.555Z" style="fill:#1a1a1a;fill-rule:nonzero;"/><path d="M504.058,607.641c-0,10.003 6.054,16.372 15.621,16.372c3.44,-0 6.378,-0.687 9.811,-2.247l0,-5.435c-3.183,1.939 -6.246,2.877 -9.498,2.877c-5.628,-0 -9.504,-3.753 -10.255,-9.82l22,-0c0.063,-0.437 0.063,-0.874 0.063,-0.999c-0,-10.5 -4.869,-16.556 -13.309,-16.556c-8.691,-0 -14.433,6.306 -14.433,15.808Zm5.742,-2.683c0.75,-5.255 4.002,-8.633 8.504,-8.633c2.563,0 4.877,1.251 6.253,3.378c0.875,1.314 1.188,2.565 1.563,5.255l-16.32,-0Z" style="fill:#1a1a1a;fill-rule:nonzero;"/><path d="M538.433,623.2l5.679,0l0,-11.187c0,-5.563 0.125,-6.875 0.688,-8.813c1.188,-3.875 4.315,-6.312 8.067,-6.312c3.251,-0 5.565,1.812 6.44,5c0.438,1.562 0.501,2.812 0.501,7.562l-0,13.75l5.679,0l0,-14.25c0,-5 -0.187,-7.5 -0.811,-9.437c-1.436,-4.747 -5.244,-7.43 -10.559,-7.43c-4.565,-0 -8.129,1.872 -10.504,5.367l-0.25,-4.805l-5.305,0c0.187,3.812 0.375,8.936 0.375,15.434l-0,15.121Z" style="fill:#1a1a1a;fill-rule:nonzero;"/><path d="M577.181,619.582c1.373,2.558 4.244,3.993 7.931,3.993c1.625,0 3.188,-0.249 5.25,-0.873l0,-4.869c-1.5,0.687 -2.5,0.937 -3.687,0.937c-2.5,0 -4.25,-1.313 -4.688,-3.563c-0.25,-1.188 -0.312,-2.814 -0.312,-6.003l-0,-12.129l8.062,0l0,-4.43l-8.062,0l-0,-8.812l-5.68,1.937l0,6.875l-7.062,0l-0,4.43l7.062,0l0,13.818c0,4.814 0.312,7.002 1.186,8.689Z" style="fill:#1a1a1a;fill-rule:nonzero;"/><path d="M594.745,614.455c0,5.564 4.182,9.183 10.62,9.183c4.69,-0 7.941,-1.81 10.255,-5.681c-0.063,1.868 -0.063,2.118 -0.063,2.806c0,0.687 0,1.25 0.063,2.437l5.18,0c-0.188,-2.375 -0.313,-5.625 -0.313,-10.375l0,-6.371c0,-4.561 -0.312,-6.813 -1.248,-8.753c-1.685,-3.559 -5.62,-5.618 -10.935,-5.618c-3.752,-0 -6.879,0.874 -10.251,2.808l0.312,5c3.123,-2.127 5.686,-3.003 9.001,-3.003c5.127,-0 7.566,2.44 7.629,7.695c-1.939,-0.125 -3.064,-0.188 -4.253,-0.188c-10.254,0 -15.997,3.619 -15.997,10.055l0,0.005Zm5.992,-0.067c0,-3.875 3.815,-5.813 11.319,-5.813c1.188,0 2.001,0.063 3.064,0.188c-0,3.062 -0.25,4.5 -0.938,5.937c-1.313,2.75 -4.19,4.438 -7.567,4.438c-3.439,-0 -5.878,-1.938 -5.878,-4.75Z" style="fill:#1a1a1a;fill-rule:nonzero;"/><path d="M629.808,623.2l5.679,0l0,-11.997c0,-4.561 0.125,-5.873 0.688,-7.56c1.25,-4.005 4.187,-6.38 7.875,-6.38c0.937,-0 1.562,0.125 2.687,0.562l0,-5.18c-1.312,-0.375 -1.937,-0.437 -3.062,-0.437c-3.875,-0 -6.938,2.059 -8.687,5.867l-0.312,-5.43l-5.243,0c0.25,5.687 0.375,9.686 0.375,11.935l-0,18.62Z" style="fill:#1a1a1a;fill-rule:nonzero;"/><path d="M650.182,631.083l-0.312,4.618c1.562,0.312 2.311,0.437 3.499,0.437c3.561,-0 6.06,-1.186 8.06,-3.869c1.562,-1.999 2.312,-3.561 4.374,-9.374l10.872,-30.25l-5.624,0l-7.185,20.75c-0.688,2 -0.75,2.188 -0.875,2.563c-0.188,0.687 -0.25,1.187 -0.437,2.312c-0.063,-1.312 -0.625,-3.5 -1.625,-6.312l-6.811,-19.313l-6.123,0l11.747,31.813c-0.625,2.125 -1.687,4.125 -2.812,5.5c-0.937,1.062 -2.374,1.687 -4.061,1.687c-1,0 -1.562,-0.125 -2.687,-0.562Z" style="fill:#1a1a1a;fill-rule:nonzero;"/><path d="M681.683,631.895l-0,4.055l11.617,0l-0,-57.742l-11.617,-0l-0,3.992l6.25,0l-0,49.695l-6.25,0Z" style="fill:#1a1a1a;fill-rule:nonzero;"/></g><g><rect x="261.495" y="661.376" width="7.906" height="55.573" style="fill:#66bc45;fill-rule:nonzero;"/><path d="M283.328,716.949l7.573,-0l0,-14.917c0,-7.416 0.167,-9.166 0.917,-11.75c1.585,-5.166 5.753,-8.416 10.756,-8.416c4.335,-0 7.42,2.416 8.588,6.666c0.583,2.084 0.666,3.75 0.666,10.084l0,18.333l7.573,-0l0,-19c0,-6.667 -0.249,-10 -1.082,-12.583c-1.914,-6.329 -6.991,-9.907 -14.078,-9.907c-6.086,0 -10.838,2.496 -14.005,7.157l-0.333,-6.407l-7.075,0c0.25,5.082 0.5,11.914 0.5,20.578l0,20.162Z" style="fill:#66bc45;fill-rule:nonzero;"/><path d="M339.158,716.949l8.664,-0l14.663,-40.74l-7.498,0l-9.581,27.167l-1,3.083c-0.333,1.084 -0.5,1.917 -0.75,3.417c-0.25,-1.917 -0.166,-2.25 -2.999,-10.167l-8.331,-23.5l-8.164,0l14.996,40.74Z" style="fill:#66bc45;fill-rule:nonzero;"/><path d="M365.412,696.203c-0,13.338 8.073,21.829 20.829,21.829c4.585,0 8.504,-0.915 13.081,-2.995l0,-7.247c-4.244,2.585 -8.329,3.836 -12.664,3.836c-7.504,-0 -12.673,-5.004 -13.673,-13.094l29.333,0c0.083,-0.582 0.083,-1.164 0.083,-1.331c0,-14 -6.491,-22.075 -17.744,-22.075c-11.589,-0 -19.245,8.408 -19.245,21.077Zm7.656,-3.577c1,-7.006 5.336,-11.51 11.339,-11.51c3.418,-0 6.503,1.668 8.337,4.504c1.167,1.751 1.584,3.419 2.084,7.006l-21.76,-0Z" style="fill:#66bc45;fill-rule:nonzero;"/><path d="M411.245,716.949l7.573,-0l-0,-14.917c-0,-7.416 0.167,-9.166 0.917,-11.75c1.584,-5.166 5.753,-8.416 10.756,-8.416c4.335,-0 7.42,2.416 8.587,6.666c0.584,2.084 0.667,3.75 0.667,10.084l0,18.333l7.573,-0l-0,-19c-0,-6.667 -0.25,-10 -1.082,-12.583c-1.914,-6.329 -6.991,-9.907 -14.078,-9.907c-6.086,0 -10.839,2.496 -14.006,7.157l-0.333,-6.407l-7.074,0c0.25,5.082 0.5,11.914 0.5,20.578l0,20.162Z" style="fill:#66bc45;fill-rule:nonzero;"/><path d="M462.91,712.124c1.83,3.411 5.658,5.325 10.575,5.325c2.166,-0 4.25,-0.333 7,-1.165l-0,-6.492c-2,0.917 -3.334,1.251 -4.917,1.251c-3.333,-0 -5.667,-1.751 -6.25,-4.752c-0.333,-1.584 -0.417,-3.751 -0.417,-8.003l0,-16.172l10.75,-0l0,-5.907l-10.75,0l0,-11.75l-7.573,2.584l0,9.166l-9.416,0l-0,5.907l9.416,-0l0,18.423c0,6.419 0.416,9.337 1.582,11.585Z" style="fill:#66bc45;fill-rule:nonzero;"/><path d="M486.328,705.288c0,7.419 5.576,12.244 14.16,12.244c6.253,0 10.589,-2.412 13.674,-7.574c-0.084,2.491 -0.084,2.824 -0.084,3.741c0,0.917 0,1.667 0.084,3.25l6.906,-0c-0.25,-3.167 -0.417,-7.5 -0.417,-13.833l0,-8.495c0,-6.082 -0.416,-9.085 -1.664,-11.671c-2.246,-4.745 -7.493,-7.491 -14.58,-7.491c-5.003,0 -9.172,1.165 -13.668,3.744l0.416,6.667c4.164,-2.837 7.582,-4.004 12.001,-4.004c6.837,-0 10.088,3.253 10.172,10.259c-2.585,-0.166 -4.086,-0.249 -5.67,-0.249c-13.673,-0 -21.33,4.824 -21.33,13.406l0,0.006Zm7.99,-0.089c-0,-5.167 5.086,-7.75 15.091,-7.75c1.584,-0 2.668,0.083 4.086,0.25c-0,4.083 -0.334,6 -1.251,7.917c-1.751,3.666 -5.586,5.916 -10.089,5.916c-4.585,0 -7.837,-2.583 -7.837,-6.333Z" style="fill:#66bc45;fill-rule:nonzero;"/><path d="M533.078,716.949l7.573,-0l0,-15.996c0,-6.082 0.167,-7.831 0.917,-10.081c1.667,-5.34 5.583,-8.506 10.5,-8.506c1.25,-0 2.083,0.166 3.583,0.75l0,-6.907c-1.75,-0.5 -2.583,-0.583 -4.083,-0.583c-5.167,-0 -9.25,2.746 -11.582,7.823l-0.417,-7.24l-6.991,0c0.334,7.582 0.5,12.914 0.5,15.913l0,24.827Z" style="fill:#66bc45;fill-rule:nonzero;"/><path d="M560.244,727.459l-0.416,6.158c2.082,0.415 3.082,0.582 4.665,0.582c4.749,-0 8.081,-1.581 10.747,-5.158c2.083,-2.665 3.083,-4.748 5.832,-12.498l14.496,-40.334l-7.498,0l-9.581,27.667c-0.916,2.667 -0.999,2.917 -1.166,3.417c-0.25,0.916 -0.333,1.583 -0.583,3.083c-0.084,-1.75 -0.833,-4.667 -2.166,-8.417l-9.081,-25.75l-8.165,0l15.663,42.417c-0.833,2.833 -2.25,5.5 -3.749,7.333c-1.25,1.417 -3.166,2.25 -5.415,2.25c-1.333,0 -2.083,-0.166 -3.583,-0.75Z" style="fill:#66bc45;fill-rule:nonzero;"/><path d="M623.162,716.949l7.573,-0l-0,-14.917c-0,-7.416 0.166,-9.166 0.917,-11.75c1.584,-5.166 5.753,-8.416 10.755,-8.416c4.336,-0 7.421,2.416 8.588,6.666c0.583,2.084 0.667,3.75 0.667,10.084l-0,18.333l7.573,-0l-0,-19c-0,-6.667 -0.25,-10 -1.082,-12.583c-1.914,-6.329 -6.991,-9.907 -14.078,-9.907c-6.087,0 -10.839,2.496 -14.006,7.157l-0.333,-6.407l-7.074,0c0.25,5.082 0.5,11.914 0.5,20.578l-0,20.162Z" style="fill:#66bc45;fill-rule:nonzero;"/><path d="M671.742,710.209c2.247,4.661 7.077,7.323 13.08,7.323c5.753,0 10.422,-2.329 13.672,-6.906l0.416,6.323l6.908,-0c-0.417,-7.332 -0.5,-10.497 -0.5,-15.08l-0,-25.66l-7.573,0l0,17.912c0,6.672 -0.25,8.088 -1.668,11.005c-2.001,4 -5.586,6.417 -9.754,6.417c-3.752,-0 -6.587,-1.917 -7.921,-5.5c-0.834,-2.167 -1.084,-4.834 -1.084,-10.917l-0,-18.917l-7.573,0l0,21.584c0,5.583 0.666,9.666 1.997,12.416Z" style="fill:#66bc45;fill-rule:nonzero;"/><path d="M717.912,716.949l7.573,-0l-0,-18c-0,-5.833 0.166,-7.083 1.167,-9.75c1.668,-4.417 5.42,-7.333 9.589,-7.333c3.252,-0 5.753,2 6.754,5.583c0.5,1.667 0.583,3.5 0.583,8.583l0,20.917l7.573,-0l0,-17.25c0,-5.667 0.084,-7.083 0.751,-9.417c1.334,-5 5.169,-8.416 9.589,-8.416c3.585,-0 6.003,2 7.004,5.666c0.5,1.75 0.667,4.084 0.667,9.417l-0,20l7.573,-0l-0,-21.417c-0,-5.75 -0.333,-8.833 -1.082,-11.25c-1.831,-5.661 -6.408,-8.823 -12.578,-8.823c-6.087,0 -10.756,2.829 -13.422,8.157c-1.747,-5.245 -5.908,-8.157 -11.995,-8.157c-5.836,0 -10.672,2.746 -12.839,7.323l-0.416,-6.573l-6.991,0c0.333,6.665 0.5,11.414 0.5,17.746l-0,22.994Z" style="fill:#66bc45;fill-rule:nonzero;"/><path d="M787.912,716.949l7.24,-0l-0,-6.99c2.584,4.828 7.753,7.573 14.005,7.573c10.753,0 17.661,-8.407 17.661,-21.328c-0,-12.588 -6.908,-20.745 -17.494,-20.745c-6.503,0 -12.089,3.079 -14.089,7.74c0.083,-0.666 0.083,-1.25 0.166,-1.417c0.084,-1.414 0.084,-1.414 0.084,-3.328l-0,-21.495l-7.573,0l-0,59.99Zm7.739,-20.328c0,-8.586 5.086,-14.755 12.172,-14.755c6.503,-0 11.005,6.085 11.005,14.671c0,8.42 -4.752,14.589 -11.338,14.589c-6.753,-0 -11.839,-6.252 -11.839,-14.505Z" style="fill:#66bc45;fill-rule:nonzero;"/><path d="M833.328,696.203c0,13.338 8.074,21.829 20.83,21.829c4.585,0 8.504,-0.915 13.081,-2.995l-0,-7.247c-4.244,2.585 -8.329,3.836 -12.665,3.836c-7.503,-0 -12.672,-5.004 -13.673,-13.094l29.334,0c0.083,-0.582 0.083,-1.164 0.083,-1.331c-0,-14 -6.491,-22.075 -17.745,-22.075c-11.588,-0 -19.245,8.408 -19.245,21.077Zm7.657,-3.577c1,-7.006 5.336,-11.51 11.338,-11.51c3.419,-0 6.503,1.668 8.338,4.504c1.167,1.751 1.584,3.419 2.084,7.006l-21.76,-0Z" style="fill:#66bc45;fill-rule:nonzero;"/><path d="M879.162,716.949l7.573,-0l-0,-15.996c-0,-6.082 0.166,-7.831 0.916,-10.081c1.667,-5.34 5.584,-8.506 10.5,-8.506c1.25,-0 2.084,0.166 3.584,0.75l-0,-6.907c-1.75,-0.5 -2.584,-0.583 -4.084,-0.583c-5.166,-0 -9.25,2.746 -11.582,7.823l-0.416,-7.24l-6.991,0c0.333,7.582 0.5,12.914 0.5,15.913l-0,24.827Z" style="fill:#66bc45;fill-rule:nonzero;"/></g><g><path d="M260.912,944.032l31.406,0l-0,-6.739l-23.5,-0l-0,-48.834l-7.906,0l-0,55.573Z" style="fill:#66bc45;fill-rule:nonzero;"/><path d="M296.162,923.787c-0,12.255 8.823,21.329 20.745,21.329c12.171,-0 20.994,-8.824 20.994,-21.078c0,-12.921 -8.573,-21.829 -20.994,-21.829c-12.005,0 -20.745,9.074 -20.745,21.578Zm7.989,-0.083c0,-9.003 5.419,-15.505 12.922,-15.505c7.503,-0 12.839,6.502 12.839,15.839c-0,8.669 -5.419,15.088 -12.839,15.088c-7.586,-0 -12.922,-6.336 -12.922,-15.422Z" style="fill:#66bc45;fill-rule:nonzero;"/><path d="M344.412,923.704c-0,12.505 8.239,20.828 20.656,20.828c3.917,0 7.083,-0.665 10,-2.08l-0.583,-6.91c-3.084,1.917 -5.334,2.584 -8.5,2.584c-8,-0 -13.584,-6.002 -13.584,-14.755c0,-8.253 5.667,-14.172 13.75,-14.172c2.834,-0 5.167,0.583 7.417,1.917l0.5,-6.667c-2.75,-1.077 -6.083,-1.656 -9.25,-1.656c-5.833,-0 -11.667,2.496 -15.413,6.656c-3.329,3.751 -4.993,8.586 -4.993,14.255Z" style="fill:#66bc45;fill-rule:nonzero;"/><path d="M380.328,932.371c0,7.42 5.576,12.245 14.16,12.245c6.253,-0 10.589,-2.413 13.674,-7.575c-0.084,2.491 -0.084,2.825 -0.084,3.741c0,0.917 0,1.667 0.084,3.25l6.906,0c-0.25,-3.166 -0.417,-7.5 -0.417,-13.833l0,-8.495c0,-6.082 -0.416,-9.085 -1.664,-11.671c-2.246,-4.745 -7.493,-7.49 -14.58,-7.49c-5.003,-0 -9.172,1.164 -13.668,3.744l0.416,6.666c4.164,-2.836 7.582,-4.004 12.001,-4.004c6.837,-0 10.088,3.253 10.172,10.26c-2.585,-0.167 -4.086,-0.25 -5.67,-0.25c-13.673,0 -21.33,4.825 -21.33,13.407l0,0.005Zm7.99,-0.089c-0,-5.166 5.086,-7.75 15.091,-7.75c1.584,0 2.668,0.084 4.086,0.25c-0,4.084 -0.334,6 -1.251,7.917c-1.751,3.667 -5.586,5.917 -10.089,5.917c-4.585,-0 -7.837,-2.584 -7.837,-6.334Z" style="fill:#66bc45;fill-rule:nonzero;"/><path d="M430.91,939.207c1.83,3.412 5.658,5.325 10.575,5.325c2.166,0 4.25,-0.333 7,-1.165l-0,-6.492c-2,0.917 -3.334,1.251 -4.917,1.251c-3.333,-0 -5.667,-1.751 -6.25,-4.752c-0.333,-1.584 -0.417,-3.751 -0.417,-8.003l0,-16.172l10.75,-0l0,-5.906l-10.75,-0l0,-11.75l-7.573,2.583l0,9.167l-9.416,-0l-0,5.906l9.416,-0l0,18.423c0,6.419 0.416,9.337 1.582,11.585Z" style="fill:#66bc45;fill-rule:nonzero;"/><path d="M455.995,893.532l8.24,0l-0,-8.323l-8.24,0l0,8.323Zm0.5,50.5l7.573,0l-0,-40.739l-7.573,-0l0,40.739Z" style="fill:#66bc45;fill-rule:nonzero;"/><path d="M473.078,923.787c0,12.255 8.824,21.329 20.745,21.329c12.172,-0 20.995,-8.824 20.995,-21.078c-0,-12.921 -8.573,-21.829 -20.995,-21.829c-12.005,0 -20.745,9.074 -20.745,21.578Zm7.99,-0.083c-0,-9.003 5.419,-15.505 12.922,-15.505c7.503,-0 12.838,6.502 12.838,15.839c0,8.669 -5.418,15.088 -12.838,15.088c-7.586,-0 -12.922,-6.336 -12.922,-15.422Z" style="fill:#66bc45;fill-rule:nonzero;"/><path d="M524.078,944.032l7.573,0l0,-14.916c0,-7.417 0.167,-9.167 0.917,-11.75c1.585,-5.167 5.753,-8.417 10.756,-8.417c4.335,-0 7.42,2.417 8.588,6.667c0.583,2.083 0.666,3.75 0.666,10.083l0,18.333l7.573,0l0,-19c0,-6.666 -0.249,-10 -1.082,-12.583c-1.914,-6.329 -6.991,-9.906 -14.078,-9.906c-6.086,-0 -10.838,2.496 -14.005,7.156l-0.333,-6.406l-7.075,-0c0.25,5.082 0.5,11.913 0.5,20.578l0,20.161Z" style="fill:#66bc45;fill-rule:nonzero;"/><path d="M592.495,944.032l7.573,0l-0,-14.916c-0,-7.417 0.167,-9.167 0.917,-11.75c1.584,-5.167 5.753,-8.417 10.756,-8.417c4.335,-0 7.42,2.417 8.587,6.667c0.584,2.083 0.667,3.75 0.667,10.083l0,18.333l7.573,0l-0,-19c-0,-6.666 -0.25,-10 -1.082,-12.583c-1.914,-6.329 -6.991,-9.906 -14.078,-9.906c-6.086,-0 -10.839,2.496 -14.006,7.156l-0.333,-6.406l-7.074,-0c0.25,5.082 0.5,11.913 0.5,20.578l0,20.161Z" style="fill:#66bc45;fill-rule:nonzero;"/><path d="M636.828,932.371c0,7.42 5.576,12.245 14.16,12.245c6.253,-0 10.589,-2.413 13.674,-7.575c-0.084,2.491 -0.084,2.825 -0.084,3.741c0,0.917 0,1.667 0.084,3.25l6.906,0c-0.25,-3.166 -0.417,-7.5 -0.417,-13.833l0,-8.495c0,-6.082 -0.416,-9.085 -1.664,-11.671c-2.246,-4.745 -7.493,-7.49 -14.58,-7.49c-5.003,-0 -9.172,1.164 -13.668,3.744l0.416,6.666c4.164,-2.836 7.582,-4.004 12.001,-4.004c6.837,-0 10.088,3.253 10.172,10.26c-2.585,-0.167 -4.086,-0.25 -5.67,-0.25c-13.673,0 -21.33,4.825 -21.33,13.407l0,0.005Zm7.99,-0.089c-0,-5.166 5.086,-7.75 15.091,-7.75c1.584,0 2.668,0.084 4.086,0.25c-0,4.084 -0.334,6 -1.251,7.917c-1.751,3.667 -5.586,5.917 -10.089,5.917c-4.585,-0 -7.837,-2.584 -7.837,-6.334Z" style="fill:#66bc45;fill-rule:nonzero;"/><path d="M683.578,944.032l7.573,0l0,-18c0,-5.833 0.167,-7.083 1.168,-9.75c1.667,-4.416 5.419,-7.333 9.589,-7.333c3.251,-0 5.753,2 6.753,5.583c0.501,1.667 0.584,3.5 0.584,8.584l0,20.916l7.573,0l-0,-17.25c-0,-5.666 0.083,-7.083 0.75,-9.416c1.335,-5 5.17,-8.417 9.589,-8.417c3.586,-0 6.004,2 7.004,5.667c0.501,1.75 0.667,4.083 0.667,9.416l0,20l7.573,0l0,-21.416c0,-5.75 -0.333,-8.834 -1.082,-11.25c-1.83,-5.662 -6.407,-8.823 -12.577,-8.823c-6.087,-0 -10.757,2.828 -13.422,8.156c-1.748,-5.244 -5.908,-8.156 -11.995,-8.156c-5.837,-0 -10.673,2.745 -12.839,7.323l-0.417,-6.573l-6.991,-0c0.334,6.665 0.5,11.413 0.5,17.745l0,22.994Z" style="fill:#66bc45;fill-rule:nonzero;"/><path d="M750.912,923.286c-0,13.338 8.073,21.83 20.829,21.83c4.585,-0 8.504,-0.916 13.081,-2.996l0,-7.247c-4.244,2.585 -8.329,3.836 -12.664,3.836c-7.504,0 -12.673,-5.004 -13.673,-13.093l29.333,-0c0.083,-0.583 0.083,-1.165 0.083,-1.331c0,-14.001 -6.491,-22.076 -17.744,-22.076c-11.589,0 -19.245,8.409 -19.245,21.077Zm7.656,-3.577c1,-7.006 5.336,-11.51 11.339,-11.51c3.418,-0 6.503,1.668 8.337,4.504c1.167,1.752 1.584,3.42 2.084,7.006l-21.76,0Z" style="fill:#66bc45;fill-rule:nonzero;"/></g><g><path d="M262.058,854.7l11.617,0l-0,-3.992l-6.25,-0l-0,-49.695l6.25,-0l-0,-4.055l-11.617,-0l-0,57.742Z" style="fill:#1a1a1a;fill-rule:nonzero;"/><rect x="282.62" y="796.958" width="5.68" height="44.992" style="fill:#1a1a1a;fill-rule:nonzero;"/><path d="M294.995,833.205c0,5.564 4.182,9.183 10.62,9.183c4.69,-0 7.941,-1.81 10.255,-5.681c-0.063,1.868 -0.063,2.118 -0.063,2.806c0,0.687 0,1.25 0.063,2.437l5.18,0c-0.188,-2.375 -0.313,-5.625 -0.313,-10.375l0,-6.371c0,-4.561 -0.312,-6.813 -1.248,-8.753c-1.685,-3.559 -5.62,-5.618 -10.935,-5.618c-3.752,-0 -6.879,0.874 -10.251,2.808l0.312,5c3.123,-2.127 5.686,-3.003 9.001,-3.003c5.127,-0 7.566,2.44 7.629,7.695c-1.939,-0.125 -3.064,-0.188 -4.253,-0.188c-10.254,0 -15.997,3.619 -15.997,10.055l0,0.005Zm5.992,-0.067c0,-3.875 3.815,-5.813 11.319,-5.813c1.188,0 2.001,0.063 3.064,0.188c-0,3.062 -0.25,4.5 -0.938,5.937c-1.313,2.75 -4.19,4.438 -7.567,4.438c-3.439,-0 -5.878,-1.938 -5.878,-4.75Z" style="fill:#1a1a1a;fill-rule:nonzero;"/><path d="M329.495,841.95l5.43,0l0,-5.242c1.938,3.621 5.815,5.68 10.504,5.68c8.065,-0 13.246,-6.306 13.246,-15.996c-0,-9.441 -5.181,-15.559 -13.121,-15.559c-4.877,-0 -9.066,2.309 -10.566,5.805c0.062,-0.5 0.062,-0.938 0.124,-1.063c0.063,-1.061 0.063,-1.061 0.063,-2.496l-0,-16.121l-5.68,-0l0,44.992Zm5.805,-15.246c-0,-6.44 3.814,-11.066 9.129,-11.066c4.877,-0 8.254,4.564 8.254,11.004c-0,6.314 -3.565,10.941 -8.504,10.941c-5.065,-0 -8.879,-4.689 -8.879,-10.879Z" style="fill:#1a1a1a;fill-rule:nonzero;"/><path d="M363.558,826.391c-0,10.003 6.054,16.372 15.621,16.372c3.44,-0 6.378,-0.687 9.811,-2.247l0,-5.435c-3.183,1.939 -6.246,2.877 -9.498,2.877c-5.628,-0 -9.504,-3.753 -10.255,-9.82l22,-0c0.063,-0.437 0.063,-0.874 0.063,-0.999c-0,-10.5 -4.869,-16.556 -13.309,-16.556c-8.691,-0 -14.433,6.306 -14.433,15.808Zm5.742,-2.683c0.75,-5.255 4.002,-8.633 8.504,-8.633c2.563,0 4.877,1.251 6.253,3.378c0.875,1.314 1.188,2.565 1.563,5.255l-16.32,-0Z" style="fill:#1a1a1a;fill-rule:nonzero;"/><rect x="397.87" y="796.958" width="5.68" height="44.992" style="fill:#1a1a1a;fill-rule:nonzero;"/><rect x="427.808" y="796.958" width="5.68" height="44.992" style="fill:#1a1a1a;fill-rule:nonzero;"/><path d="M440.245,826.767c0,9.19 6.618,15.996 15.559,15.996c9.128,-0 15.746,-6.618 15.746,-15.809c-0,-9.691 -6.43,-16.371 -15.746,-16.371c-9.004,-0 -15.559,6.805 -15.559,16.184Zm5.992,-0.063c0,-6.752 4.064,-11.629 9.692,-11.629c5.627,0 9.629,4.877 9.629,11.879c-0,6.502 -4.064,11.316 -9.629,11.316c-5.69,0 -9.692,-4.751 -9.692,-11.566Z" style="fill:#1a1a1a;fill-rule:nonzero;"/><path d="M476.433,826.704c-0,9.378 6.179,15.621 15.492,15.621c2.937,0 5.312,-0.499 7.5,-1.56l-0.438,-5.183c-2.312,1.438 -4,1.938 -6.375,1.938c-6,0 -10.187,-4.501 -10.187,-11.066c-0,-6.19 4.25,-10.629 10.312,-10.629c2.125,0 3.875,0.438 5.563,1.438l0.375,-5c-2.063,-0.808 -4.563,-1.243 -6.938,-1.243c-4.375,0 -8.75,1.872 -11.559,4.993c-2.497,2.813 -3.745,6.439 -3.745,10.691Z" style="fill:#1a1a1a;fill-rule:nonzero;"/><path d="M503.37,833.205c0,5.564 4.182,9.183 10.62,9.183c4.69,-0 7.941,-1.81 10.255,-5.681c-0.063,1.868 -0.063,2.118 -0.063,2.806c0,0.687 0,1.25 0.063,2.437l5.18,0c-0.188,-2.375 -0.313,-5.625 -0.313,-10.375l0,-6.371c0,-4.561 -0.312,-6.813 -1.248,-8.753c-1.685,-3.559 -5.62,-5.618 -10.935,-5.618c-3.752,-0 -6.879,0.874 -10.251,2.808l0.312,5c3.123,-2.127 5.686,-3.003 9.001,-3.003c5.127,-0 7.566,2.44 7.629,7.695c-1.939,-0.125 -3.064,-0.188 -4.253,-0.188c-10.254,0 -15.997,3.619 -15.997,10.055l0,0.005Zm5.992,-0.067c0,-3.875 3.815,-5.813 11.319,-5.813c1.188,0 2.001,0.063 3.064,0.188c-0,3.062 -0.25,4.5 -0.938,5.937c-1.313,2.75 -4.19,4.438 -7.567,4.438c-3.439,-0 -5.878,-1.938 -5.878,-4.75Z" style="fill:#1a1a1a;fill-rule:nonzero;"/><path d="M541.306,838.332c1.373,2.558 4.244,3.993 7.931,3.993c1.625,0 3.188,-0.249 5.25,-0.873l0,-4.869c-1.5,0.687 -2.5,0.937 -3.687,0.937c-2.5,0 -4.25,-1.313 -4.688,-3.563c-0.25,-1.188 -0.312,-2.814 -0.312,-6.003l-0,-12.129l8.062,0l0,-4.43l-8.062,0l-0,-8.812l-5.68,1.937l0,6.875l-7.062,0l-0,4.43l7.062,0l0,13.818c0,4.814 0.312,7.002 1.186,8.689Z" style="fill:#1a1a1a;fill-rule:nonzero;"/><path d="M560.12,804.075l6.18,0l-0,-6.242l-6.18,-0l0,6.242Zm0.375,37.875l5.68,0l-0,-30.555l-5.68,0l0,30.555Z" style="fill:#1a1a1a;fill-rule:nonzero;"/><path d="M572.933,826.767c-0,9.19 6.617,15.996 15.558,15.996c9.129,-0 15.746,-6.618 15.746,-15.809c0,-9.691 -6.429,-16.371 -15.746,-16.371c-9.004,-0 -15.558,6.805 -15.558,16.184Zm5.992,-0.063c-0,-6.752 4.064,-11.629 9.691,-11.629c5.628,0 9.629,4.877 9.629,11.879c0,6.502 -4.064,11.316 -9.629,11.316c-5.69,0 -9.691,-4.751 -9.691,-11.566Z" style="fill:#1a1a1a;fill-rule:nonzero;"/><path d="M611.183,841.95l5.679,0l0,-11.187c0,-5.563 0.125,-6.875 0.688,-8.813c1.188,-3.875 4.315,-6.312 8.067,-6.312c3.251,-0 5.565,1.812 6.44,5c0.438,1.562 0.501,2.812 0.501,7.562l-0,13.75l5.679,0l0,-14.25c0,-5 -0.187,-7.5 -0.811,-9.437c-1.436,-4.747 -5.244,-7.43 -10.559,-7.43c-4.565,-0 -8.129,1.872 -10.504,5.367l-0.25,-4.805l-5.305,0c0.187,3.812 0.375,8.936 0.375,15.434l-0,15.121Z" style="fill:#1a1a1a;fill-rule:nonzero;"/><path d="M646.808,850.645l-0,4.055l11.617,0l-0,-57.742l-11.617,-0l-0,3.992l6.25,0l-0,49.695l-6.25,0Z" style="fill:#1a1a1a;fill-rule:nonzero;"/></g><g><rect x="445.833" y="260.724" width="10.167" height="10.167" style="fill-rule:nonzero;"/><rect x="445.833" y="270.891" width="10.167" height="10.167" style="fill-rule:nonzero;"/><rect x="445.833" y="281.057" width="10.167" height="10.167" style="fill-rule:nonzero;"/><rect x="445.833" y="291.224" width="10.167" height="10.167" style="fill-rule:nonzero;"/><rect x="445.833" y="301.391" width="10.167" height="10.167" style="fill-rule:nonzero;"/><rect x="445.833" y="311.557" width="10.167" height="10.167" style="fill-rule:nonzero;"/><rect x="445.833" y="321.724" width="10.167" height="10.167" style="fill-rule:nonzero;"/><rect x="445.833" y="443.724" width="10.167" height="10.167" style="fill-rule:nonzero;"/><rect x="445.833" y="453.891" width="10.167" height="10.167" style="fill-rule:nonzero;"/><rect x="445.833" y="464.057" width="10.167" height="10.167" style="fill-rule:nonzero;"/><rect x="445.833" y="474.224" width="10.167" height="10.167" style="fill-rule:nonzero;"/><rect x="445.833" y="484.391" width="10.167" height="10.167" style="fill-rule:nonzero;"/><rect x="445.833" y="494.557" width="10.167" height="10.167" style="fill-rule:nonzero;"/><rect x="445.833" y="504.724" width="10.167" height="10.167" style="fill-rule:nonzero;"/><rect x="456" y="260.724" width="10.167" height="10.167" style="fill-rule:nonzero;"/><rect x="456" y="321.724" width="10.167" height="10.167" style="fill-rule:nonzero;"/><rect x="456" y="352.224" width="10.167" height="10.167" style="fill-rule:nonzero;"/><rect x="456" y="382.724" width="10.167" height="10.167" style="fill-rule:nonzero;"/><rect x="456" y="403.057" width="10.167" height="10.167" style="fill-rule:nonzero;"/><rect x="456" y="413.224" width="10.167" height="10.167" style="fill-rule:nonzero;"/><rect x="456" y="423.391" width="10.167" height="10.167" style="fill-rule:nonzero;"/><rect x="456" y="443.724" width="10.167" height="10.167" style="fill-rule:nonzero;"/><rect x="456" y="504.724" width="10.167" height="10.167" style="fill-rule:nonzero;"/><rect x="466.167" y="260.724" width="10.167" height="10.167" style="fill-rule:nonzero;"/><rect x="466.167" y="281.057" width="10.167" height="10.167" style="fill-rule:nonzero;"/><rect x="466.167" y="291.224" width="10.167" height="10.167" style="fill-rule:nonzero;"/><rect x="466.167" y="301.391" width="10.167" height="10.167" style="fill-rule:nonzero;"/><rect x="466.167" y="321.724" width="10.167" height="10.167" style="fill-rule:nonzero;"/><rect x="466.167" y="342.057" width="10.167" height="10.167" style="fill-rule:nonzero;"/><rect x="466.167" y="372.557" width="10.167" height="10.167" style="fill-rule:nonzero;"/><rect x="466.167" y="392.891" width="10.167" height="10.167" style="fill-rule:nonzero;"/><rect x="466.167" y="413.224" width="10.167" height="10.167" style="fill-rule:nonzero;"/><rect x="466.167" y="423.391" width="10.167" height="10.167" style="fill-rule:nonzero;"/><rect x="466.167" y="443.724" width="10.167" height="10.167" style="fill-rule:nonzero;"/><rect x="466.167" y="464.057" width="10.167" height="10.167" style="fill-rule:nonzero;"/><rect x="466.167" y="474.224" width="10.167" height="10.167" style="fill-rule:nonzero;"/><rect x="466.167" y="484.391" width="10.167" height="10.167" style="fill-rule:nonzero;"/><rect x="466.167" y="504.724" width="10.167" height="10.167" style="fill-rule:nonzero;"/><rect x="476.333" y="260.724" width="10.167" height="10.167" style="fill-rule:nonzero;"/><rect x="476.333" y="281.057" width="10.167" height="10.167" style="fill-rule:nonzero;"/><rect x="476.333" y="291.224" width="10.167" height="10.167" style="fill-rule:nonzero;"/><rect x="476.333" y="301.391" width="10.167" height="10.167" style="fill-rule:nonzero;"/><rect x="476.333" y="321.724" width="10.167" height="10.167" style="fill-rule:nonzero;"/><rect x="476.333" y="342.057" width="10.167" height="10.167" style="fill-rule:nonzero;"/><rect x="476.333" y="352.224" width="10.167" height="10.167" style="fill-rule:nonzero;"/><rect x="476.333" y="362.391" width="10.167" height="10.167" style="fill-rule:nonzero;"/><rect x="476.333" y="382.724" width="10.167" height="10.167" style="fill-rule:nonzero;"/><rect x="476.333" y="392.891" width="10.167" height="10.167" style="fill-rule:nonzero;"/><rect x="476.333" y="413.224" width="10.167" height="10.167" style="fill-rule:nonzero;"/><rect x="476.333" y="443.724" width="10.167" height="10.167" style="fill-rule:nonzero;"/><rect x="476.333" y="464.057" width="10.167" height="10.167" style="fill-rule:nonzero;"/><rect x="476.333" y="474.224" width="10.167" height="10.167" style="fill-rule:nonzero;"/><rect x="476.333" y="484.391" width="10.167" height="10.167" style="fill-rule:nonzero;"/><rect x="476.333" y="504.724" width="10.167" height="10.167" style="fill-rule:nonzero;"/><rect x="486.5" y="260.724" width="10.167" height="10.167" style="fill-rule:nonzero;"/><rect x="486.5" y="281.057" width="10.167" height="10.167" style="fill-rule:nonzero;"/><rect x="486.5" y="291.224" width="10.167" height="10.167" style="fill-rule:nonzero;"/><rect x="486.5" y="301.391" width="10.167" height="10.167" style="fill-rule:nonzero;"/><rect x="486.5" y="321.724" width="10.167" height="10.167" style="fill-rule:nonzero;"/><rect x="486.5" y="342.057" width="10.167" height="10.167" style="fill-rule:nonzero;"/><rect x="486.5" y="352.224" width="10.167" height="10.167" style="fill-rule:nonzero;"/><rect x="486.5" y="362.391" width="10.167" height="10.167" style="fill-rule:nonzero;"/><rect x="486.5" y="403.057" width="10.167" height="10.167" style="fill-rule:nonzero;"/><rect x="486.5" y="413.224" width="10.167" height="10.167" style="fill-rule:nonzero;"/><rect x="486.5" y="443.724" width="10.167" height="10.167" style="fill-rule:nonzero;"/><rect x="486.5" y="464.057" width="10.167" height="10.167" style="fill-rule:nonzero;"/><rect x="486.5" y="474.224" width="10.167" height="10.167" style="fill-rule:nonzero;"/><rect x="486.5" y="484.391" width="10.167" height="10.167" style="fill-rule:nonzero;"/><rect x="486.5" y="504.724" width="10.167" height="10.167" style="fill-rule:nonzero;"/><rect x="496.667" y="260.724" width="10.167" height="10.167" style="fill-rule:nonzero;"/><rect x="496.667" y="321.724" width="10.167" height="10.167" style="fill-rule:nonzero;"/><rect x="496.667" y="352.224" width="10.167" height="10.167" style="fill-rule:nonzero;"/><rect x="496.667" y="362.391" width="10.167" height="10.167" style="fill-rule:nonzero;"/><rect x="496.667" y="382.724" width="10.167" height="10.167" style="fill-rule:nonzero;"/><rect x="496.667" y="392.891" width="10.167" height="10.167" style="fill-rule:nonzero;"/><rect x="496.667" y="403.057" width="10.167" height="10.167" style="fill-rule:nonzero;"/><rect x="496.667" y="413.224" width="10.167" height="10.167" style="fill-rule:nonzero;"/><rect x="496.667" y="423.391" width="10.167" height="10.167" style="fill-rule:nonzero;"/><rect x="496.667" y="443.724" width="10.167" height="10.167" style="fill-rule:nonzero;"/><rect x="496.667" y="504.724" width="10.167" height="10.167" style="fill-rule:nonzero;"/><rect x="506.833" y="260.724" width="10.167" height="10.167" style="fill-rule:nonzero;"/><rect x="506.833" y="270.891" width="10.167" height="10.167" style="fill-rule:nonzero;"/><rect x="506.833" y="281.057" width="10.167" height="10.167" style="fill-rule:nonzero;"/><rect x="506.833" y="291.224" width="10.167" height="10.167" style="fill-rule:nonzero;"/><rect x="506.833" y="301.391" width="10.167" height="10.167" style="fill-rule:nonzero;"/><rect x="506.833" y="311.557" width="10.167" height="10.167" style="fill-rule:nonzero;"/><rect x="506.833" y="321.724" width="10.167" height="10.167" style="fill-rule:nonzero;"/><rect x="506.833" y="342.057" width="10.167" height="10.167" style="fill-rule:nonzero;"/><rect x="506.833" y="362.391" width="10.167" height="10.167" style="fill-rule:nonzero;"/><rect x="506.833" y="382.724" width="10.167" height="10.167" style="fill-rule:nonzero;"/><rect x="506.833" y="403.057" width="10.167" height="10.167" style="fill-rule:nonzero;"/><rect x="506.833" y="423.391" width="10.167" height="10.167" style="fill-rule:nonzero;"/><rect x="506.833" y="443.724" width="10.167" height="10.167" style="fill-rule:nonzero;"/><rect x="506.833" y="453.891" width="10.167" height="10.167" style="fill-rule:nonzero;"/><rect x="506.833" y="464.057" width="10.167" height="10.167" style="fill-rule:nonzero;"/><rect x="506.833" y="474.224" width="10.167" height="10.167" style="fill-rule:nonzero;"/><rect x="506.833" y="484.391" width="10.167" height="10.167" style="fill-rule:nonzero;"/><rect x="506.833" y="494.557" width="10.167" height="10.167" style="fill-rule:nonzero;"/><rect x="506.833" y="504.724" width="10.167" height="10.167" style="fill-rule:nonzero;"/><rect x="517" y="362.391" width="10.167" height="10.167" style="fill-rule:nonzero;"/><rect x="517" y="392.891" width="10.167" height="10.167" style="fill-rule:nonzero;"/><rect x="517" y="423.391" width="10.167" height="10.167" style="fill-rule:nonzero;"/><rect x="527.167" y="260.724" width="10.167" height="10.167" style="fill-rule:nonzero;"/><rect x="527.167" y="270.891" width="10.167" height="10.167" style="fill-rule:nonzero;"/><rect x="527.167" y="281.057" width="10.167" height="10.167" style="fill-rule:nonzero;"/><rect x="527.167" y="311.557" width="10.167" height="10.167" style="fill-rule:nonzero;"/><rect x="527.167" y="321.724" width="10.167" height="10.167" style="fill-rule:nonzero;"/><rect x="527.167" y="331.891" width="10.167" height="10.167" style="fill-rule:nonzero;"/><rect x="527.167" y="342.057" width="10.167" height="10.167" style="fill-rule:nonzero;"/><rect x="527.167" y="362.391" width="10.167" height="10.167" style="fill-rule:nonzero;"/><rect x="527.167" y="392.891" width="10.167" height="10.167" style="fill-rule:nonzero;"/><rect x="527.167" y="403.057" width="10.167" height="10.167" style="fill-rule:nonzero;"/><rect x="527.167" y="433.557" width="10.167" height="10.167" style="fill-rule:nonzero;"/><rect x="527.167" y="464.057" width="10.167" height="10.167" style="fill-rule:nonzero;"/><rect x="527.167" y="474.224" width="10.167" height="10.167" style="fill-rule:nonzero;"/><rect x="527.167" y="484.391" width="10.167" height="10.167" style="fill-rule:nonzero;"/><rect x="537.333" y="260.724" width="10.167" height="10.167" style="fill-rule:nonzero;"/><rect x="537.333" y="291.224" width="10.167" height="10.167" style="fill-rule:nonzero;"/><rect x="537.333" y="301.391" width="10.167" height="10.167" style="fill-rule:nonzero;"/><rect x="537.333" y="311.557" width="10.167" height="10.167" style="fill-rule:nonzero;"/><rect x="537.333" y="331.891" width="10.167" height="10.167" style="fill-rule:nonzero;"/><rect x="537.333" y="342.057" width="10.167" height="10.167" style="fill-rule:nonzero;"/><rect x="537.333" y="362.391" width="10.167" height="10.167" style="fill-rule:nonzero;"/><rect x="537.333" y="382.724" width="10.167" height="10.167" style="fill-rule:nonzero;"/><rect x="537.333" y="392.891" width="10.167" height="10.167" style="fill-rule:nonzero;"/><rect x="537.333" y="403.057" width="10.167" height="10.167" style="fill-rule:nonzero;"/><rect x="537.333" y="413.224" width="10.167" height="10.167" style="fill-rule:nonzero;"/><rect x="537.333" y="423.391" width="10.167" height="10.167" style="fill-rule:nonzero;"/><rect x="537.333" y="433.557" width="10.167" height="10.167" style="fill-rule:nonzero;"/><rect x="537.333" y="443.724" width="10.167" height="10.167" style="fill-rule:nonzero;"/><rect x="537.333" y="464.057" width="10.167" height="10.167" style="fill-rule:nonzero;"/><rect x="537.333" y="474.224" width="10.167" height="10.167" style="fill-rule:nonzero;"/><rect x="537.333" y="504.724" width="10.167" height="10.167" style="fill-rule:nonzero;"/><rect x="547.5" y="260.724" width="10.167" height="10.167" style="fill-rule:nonzero;"/><rect x="547.5" y="291.224" width="10.167" height="10.167" style="fill-rule:nonzero;"/><rect x="547.5" y="311.557" width="10.167" height="10.167" style="fill-rule:nonzero;"/><rect x="547.5" y="321.724" width="10.167" height="10.167" style="fill-rule:nonzero;"/><rect x="547.5" y="342.057" width="10.167" height="10.167" style="fill-rule:nonzero;"/><rect x="547.5" y="362.391" width="10.167" height="10.167" style="fill-rule:nonzero;"/><rect x="547.5" y="372.557" width="10.167" height="10.167" style="fill-rule:nonzero;"/><rect x="547.5" y="413.224" width="10.167" height="10.167" style="fill-rule:nonzero;"/><rect x="547.5" y="433.557" width="10.167" height="10.167" style="fill-rule:nonzero;"/><rect x="547.5" y="453.891" width="10.167" height="10.167" style="fill-rule:nonzero;"/><rect x="547.5" y="474.224" width="10.167" height="10.167" style="fill-rule:nonzero;"/><rect x="547.5" y="484.391" width="10.167" height="10.167" style="fill-rule:nonzero;"/><rect x="547.5" y="494.557" width="10.167" height="10.167" style="fill-rule:nonzero;"/><rect x="557.667" y="260.724" width="10.167" height="10.167" style="fill-rule:nonzero;"/><rect x="557.667" y="270.891" width="10.167" height="10.167" style="fill-rule:nonzero;"/><rect x="557.667" y="291.224" width="10.167" height="10.167" style="fill-rule:nonzero;"/><rect x="557.667" y="311.557" width="10.167" height="10.167" style="fill-rule:nonzero;"/><rect x="557.667" y="331.891" width="10.167" height="10.167" style="fill-rule:nonzero;"/><rect x="557.667" y="342.057" width="10.167" height="10.167" style="fill-rule:nonzero;"/><rect x="557.667" y="352.224" width="10.167" height="10.167" style="fill-rule:nonzero;"/><rect x="557.667" y="372.557" width="10.167" height="10.167" style="fill-rule:nonzero;"/><rect x="557.667" y="392.891" width="10.167" height="10.167" style="fill-rule:nonzero;"/><rect x="557.667" y="423.391" width="10.167" height="10.167" style="fill-rule:nonzero;"/><rect x="557.667" y="443.724" width="10.167" height="10.167" style="fill-rule:nonzero;"/><rect x="557.667" y="474.224" width="10.167" height="10.167" style="fill-rule:nonzero;"/><rect x="557.667" y="494.557" width="10.167" height="10.167" style="fill-rule:nonzero;"/><rect x="557.667" y="504.724" width="10.167" height="10.167" style="fill-rule:nonzero;"/><rect x="567.833" y="270.891" width="10.167" height="10.167" style="fill-rule:nonzero;"/><rect x="567.833" y="281.057" width="10.167" height="10.167" style="fill-rule:nonzero;"/><rect x="567.833" y="301.391" width="10.167" height="10.167" style="fill-rule:nonzero;"/><rect x="567.833" y="311.557" width="10.167" height="10.167" style="fill-rule:nonzero;"/><rect x="567.833" y="321.724" width="10.167" height="10.167" style="fill-rule:nonzero;"/><rect x="567.833" y="352.224" width="10.167" height="10.167" style="fill-rule:nonzero;"/><rect x="567.833" y="372.557" width="10.167" height="10.167" style="fill-rule:nonzero;"/><rect x="567.833" y="392.891" width="10.167" height="10.167" style="fill-rule:nonzero;"/><rect x="567.833" y="403.057" width="10.167" height="10.167" style="fill-rule:nonzero;"/><rect x="567.833" y="413.224" width="10.167" height="10.167" style="fill-rule:nonzero;"/><rect x="567.833" y="423.391" width="10.167" height="10.167" style="fill-rule:nonzero;"/><rect x="567.833" y="464.057" width="10.167" height="10.167" style="fill-rule:nonzero;"/><rect x="567.833" y="474.224" width="10.167" height="10.167" style="fill-rule:nonzero;"/><rect x="567.833" y="494.557" width="10.167" height="10.167" style="fill-rule:nonzero;"/><rect x="567.833" y="504.724" width="10.167" height="10.167" style="fill-rule:nonzero;"/><rect x="578" y="270.891" width="10.167" height="10.167" style="fill-rule:nonzero;"/><rect x="578" y="291.224" width="10.167" height="10.167" style="fill-rule:nonzero;"/><rect x="578" y="301.391" width="10.167" height="10.167" style="fill-rule:nonzero;"/><rect x="578" y="331.891" width="10.167" height="10.167" style="fill-rule:nonzero;"/><rect x="578" y="342.057" width="10.167" height="10.167" style="fill-rule:nonzero;"/><rect x="578" y="352.224" width="10.167" height="10.167" style="fill-rule:nonzero;"/><rect x="578" y="372.557" width="10.167" height="10.167" style="fill-rule:nonzero;"/><rect x="578" y="392.891" width="10.167" height="10.167" style="fill-rule:nonzero;"/><rect x="578" y="403.057" width="10.167" height="10.167" style="fill-rule:nonzero;"/><rect x="578" y="423.391" width="10.167" height="10.167" style="fill-rule:nonzero;"/><rect x="578" y="433.557" width="10.167" height="10.167" style="fill-rule:nonzero;"/><rect x="578" y="443.724" width="10.167" height="10.167" style="fill-rule:nonzero;"/><rect x="578" y="453.891" width="10.167" height="10.167" style="fill-rule:nonzero;"/><rect x="578" y="464.057" width="10.167" height="10.167" style="fill-rule:nonzero;"/><rect x="578" y="484.391" width="10.167" height="10.167" style="fill-rule:nonzero;"/><rect x="578" y="494.557" width="10.167" height="10.167" style="fill-rule:nonzero;"/><rect x="588.167" y="260.724" width="10.167" height="10.167" style="fill-rule:nonzero;"/><rect x="588.167" y="291.224" width="10.167" height="10.167" style="fill-rule:nonzero;"/><rect x="588.167" y="311.557" width="10.167" height="10.167" style="fill-rule:nonzero;"/><rect x="588.167" y="321.724" width="10.167" height="10.167" style="fill-rule:nonzero;"/><rect x="588.167" y="331.891" width="10.167" height="10.167" style="fill-rule:nonzero;"/><rect x="588.167" y="342.057" width="10.167" height="10.167" style="fill-rule:nonzero;"/><rect x="588.167" y="362.391" width="10.167" height="10.167" style="fill-rule:nonzero;"/><rect x="588.167" y="403.057" width="10.167" height="10.167" style="fill-rule:nonzero;"/><rect x="588.167" y="433.557" width="10.167" height="10.167" style="fill-rule:nonzero;"/><rect x="588.167" y="453.891" width="10.167" height="10.167" style="fill-rule:nonzero;"/><rect x="588.167" y="484.391" width="10.167" height="10.167" style="fill-rule:nonzero;"/><rect x="588.167" y="494.557" width="10.167" height="10.167" style="fill-rule:nonzero;"/><rect x="598.333" y="260.724" width="10.167" height="10.167" style="fill-rule:nonzero;"/><rect x="598.333" y="270.891" width="10.167" height="10.167" style="fill-rule:nonzero;"/><rect x="598.333" y="281.057" width="10.167" height="10.167" style="fill-rule:nonzero;"/><rect x="598.333" y="291.224" width="10.167" height="10.167" style="fill-rule:nonzero;"/><rect x="598.333" y="352.224" width="10.167" height="10.167" style="fill-rule:nonzero;"/><rect x="598.333" y="362.391" width="10.167" height="10.167" style="fill-rule:nonzero;"/><rect x="598.333" y="382.724" width="10.167" height="10.167" style="fill-rule:nonzero;"/><rect x="598.333" y="392.891" width="10.167" height="10.167" style="fill-rule:nonzero;"/><rect x="598.333" y="403.057" width="10.167" height="10.167" style="fill-rule:nonzero;"/><rect x="598.333" y="413.224" width="10.167" height="10.167" style="fill-rule:nonzero;"/><rect x="598.333" y="423.391" width="10.167" height="10.167" style="fill-rule:nonzero;"/><rect x="598.333" y="433.557" width="10.167" height="10.167" style="fill-rule:nonzero;"/><rect x="598.333" y="443.724" width="10.167" height="10.167" style="fill-rule:nonzero;"/><rect x="598.333" y="474.224" width="10.167" height="10.167" style="fill-rule:nonzero;"/><rect x="598.333" y="504.724" width="10.167" height="10.167" style="fill-rule:nonzero;"/><rect x="608.5" y="260.724" width="10.167" height="10.167" style="fill-rule:nonzero;"/><rect x="608.5" y="291.224" width="10.167" height="10.167" style="fill-rule:nonzero;"/><rect x="608.5" y="301.391" width="10.167" height="10.167" style="fill-rule:nonzero;"/><rect x="608.5" y="311.557" width="10.167" height="10.167" style="fill-rule:nonzero;"/><rect x="608.5" y="321.724" width="10.167" height="10.167" style="fill-rule:nonzero;"/><rect x="608.5" y="331.891" width="10.167" height="10.167" style="fill-rule:nonzero;"/><rect x="608.5" y="342.057" width="10.167" height="10.167" style="fill-rule:nonzero;"/><rect x="608.5" y="352.224" width="10.167" height="10.167" style="fill-rule:nonzero;"/><rect x="608.5" y="362.391" width="10.167" height="10.167" style="fill-rule:nonzero;"/><rect x="608.5" y="382.724" width="10.167" height="10.167" style="fill-rule:nonzero;"/><rect x="608.5" y="403.057" width="10.167" height="10.167" style="fill-rule:nonzero;"/><rect x="608.5" y="423.391" width="10.167" height="10.167" style="fill-rule:nonzero;"/><rect x="608.5" y="433.557" width="10.167" height="10.167" style="fill-rule:nonzero;"/><rect x="608.5" y="443.724" width="10.167" height="10.167" style="fill-rule:nonzero;"/><rect x="608.5" y="453.891" width="10.167" height="10.167" style="fill-rule:nonzero;"/><rect x="608.5" y="464.057" width="10.167" height="10.167" style="fill-rule:nonzero;"/><rect x="608.5" y="474.224" width="10.167" height="10.167" style="fill-rule:nonzero;"/><rect x="608.5" y="484.391" width="10.167" height="10.167" style="fill-rule:nonzero;"/><rect x="618.667" y="342.057" width="10.167" height="10.167" style="fill-rule:nonzero;"/><rect x="618.667" y="372.557" width="10.167" height="10.167" style="fill-rule:nonzero;"/><rect x="618.667" y="392.891" width="10.167" height="10.167" style="fill-rule:nonzero;"/><rect x="618.667" y="403.057" width="10.167" height="10.167" style="fill-rule:nonzero;"/><rect x="618.667" y="423.391" width="10.167" height="10.167" style="fill-rule:nonzero;"/><rect x="618.667" y="464.057" width="10.167" height="10.167" style="fill-rule:nonzero;"/><rect x="618.667" y="474.224" width="10.167" height="10.167" style="fill-rule:nonzero;"/><rect x="618.667" y="504.724" width="10.167" height="10.167" style="fill-rule:nonzero;"/><rect x="628.833" y="260.724" width="10.167" height="10.167" style="fill-rule:nonzero;"/><rect x="628.833" y="270.891" width="10.167" height="10.167" style="fill-rule:nonzero;"/><rect x="628.833" y="281.057" width="10.167" height="10.167" style="fill-rule:nonzero;"/><rect x="628.833" y="291.224" width="10.167" height="10.167" style="fill-rule:nonzero;"/><rect x="628.833" y="301.391" width="10.167" height="10.167" style="fill-rule:nonzero;"/><rect x="628.833" y="311.557" width="10.167" height="10.167" style="fill-rule:nonzero;"/><rect x="628.833" y="321.724" width="10.167" height="10.167" style="fill-rule:nonzero;"/><rect x="628.833" y="342.057" width="10.167" height="10.167" style="fill-rule:nonzero;"/><rect x="628.833" y="352.224" width="10.167" height="10.167" style="fill-rule:nonzero;"/><rect x="628.833" y="362.391" width="10.167" height="10.167" style="fill-rule:nonzero;"/><rect x="628.833" y="372.557" width="10.167" height="10.167" style="fill-rule:nonzero;"/><rect x="628.833" y="382.724" width="10.167" height="10.167" style="fill-rule:nonzero;"/><rect x="628.833" y="392.891" width="10.167" height="10.167" style="fill-rule:nonzero;"/><rect x="628.833" y="423.391" width="10.167" height="10.167" style="fill-rule:nonzero;"/><rect x="628.833" y="443.724" width="10.167" height="10.167" style="fill-rule:nonzero;"/><rect x="628.833" y="464.057" width="10.167" height="10.167" style="fill-rule:nonzero;"/><rect x="628.833" y="484.391" width="10.167" height="10.167" style="fill-rule:nonzero;"/><rect x="628.833" y="494.557" width="10.167" height="10.167" style="fill-rule:nonzero;"/><rect x="628.833" y="504.724" width="10.167" height="10.167" style="fill-rule:nonzero;"/><rect x="639" y="260.724" width="10.167" height="10.167" style="fill-rule:nonzero;"/><rect x="639" y="321.724" width="10.167" height="10.167" style="fill-rule:nonzero;"/><rect x="639" y="342.057" width="10.167" height="10.167" style="fill-rule:nonzero;"/><rect x="639" y="352.224" width="10.167" height="10.167" style="fill-rule:nonzero;"/><rect x="639" y="372.557" width="10.167" height="10.167" style="fill-rule:nonzero;"/><rect x="639" y="403.057" width="10.167" height="10.167" style="fill-rule:nonzero;"/><rect x="639" y="413.224" width="10.167" height="10.167" style="fill-rule:nonzero;"/><rect x="639" y="423.391" width="10.167" height="10.167" style="fill-rule:nonzero;"/><rect x="639" y="464.057" width="10.167" height="10.167" style="fill-rule:nonzero;"/><rect x="639" y="484.391" width="10.167" height="10.167" style="fill-rule:nonzero;"/><rect x="649.167" y="260.724" width="10.167" height="10.167" style="fill-rule:nonzero;"/><rect x="649.167" y="281.057" width="10.167" height="10.167" style="fill-rule:nonzero;"/><rect x="649.167" y="291.224" width="10.167" height="10.167" style="fill-rule:nonzero;"/><rect x="649.167" y="301.391" width="10.167" height="10.167" style="fill-rule:nonzero;"/><rect x="649.167" y="321.724" width="10.167" height="10.167" style="fill-rule:nonzero;"/><rect x="649.167" y="352.224" width="10.167" height="10.167" style="fill-rule:nonzero;"/><rect x="649.167" y="362.391" width="10.167" height="10.167" style="fill-rule:nonzero;"/><rect x="649.167" y="372.557" width="10.167" height="10.167" style="fill-rule:nonzero;"/><rect x="649.167" y="423.391" width="10.167" height="10.167" style="fill-rule:nonzero;"/><rect x="649.167" y="433.557" width="10.167" height="10.167" style="fill-rule:nonzero;"/><rect x="649.167" y="443.724" width="10.167" height="10.167" style="fill-rule:nonzero;"/><rect x="649.167" y="453.891" width="10.167" height="10.167" style="fill-rule:nonzero;"/><rect x="649.167" y="464.057" width="10.167" height="10.167" style="fill-rule:nonzero;"/><rect x="649.167" y="474.224" width="10.167" height="10.167" style="fill-rule:nonzero;"/><rect x="649.167" y="494.557" width="10.167" height="10.167" style="fill-rule:nonzero;"/><rect x="659.333" y="260.724" width="10.167" height="10.167" style="fill-rule:nonzero;"/><rect x="659.333" y="281.057" width="10.167" height="10.167" style="fill-rule:nonzero;"/><rect x="659.333" y="291.224" width="10.167" height="10.167" style="fill-rule:nonzero;"/><rect x="659.333" y="301.391" width="10.167" height="10.167" style="fill-rule:nonzero;"/><rect x="659.333" y="321.724" width="10.167" height="10.167" style="fill-rule:nonzero;"/><rect x="659.333" y="352.224" width="10.167" height="10.167" style="fill-rule:nonzero;"/><rect x="659.333" y="403.057" width="10.167" height="10.167" style="fill-rule:nonzero;"/><rect x="659.333" y="464.057" width="10.167" height="10.167" style="fill-rule:nonzero;"/><rect x="659.333" y="474.224" width="10.167" height="10.167" style="fill-rule:nonzero;"/><rect x="669.5" y="260.724" width="10.167" height="10.167" style="fill-rule:nonzero;"/><rect x="669.5" y="281.057" width="10.167" height="10.167" style="fill-rule:nonzero;"/><rect x="669.5" y="291.224" width="10.167" height="10.167" style="fill-rule:nonzero;"/><rect x="669.5" y="301.391" width="10.167" height="10.167" style="fill-rule:nonzero;"/><rect x="669.5" y="321.724" width="10.167" height="10.167" style="fill-rule:nonzero;"/><rect x="669.5" y="342.057" width="10.167" height="10.167" style="fill-rule:nonzero;"/><rect x="669.5" y="362.391" width="10.167" height="10.167" style="fill-rule:nonzero;"/><rect x="669.5" y="382.724" width="10.167" height="10.167" style="fill-rule:nonzero;"/><rect x="669.5" y="423.391" width="10.167" height="10.167" style="fill-rule:nonzero;"/><rect x="669.5" y="443.724" width="10.167" height="10.167" style="fill-rule:nonzero;"/><rect x="669.5" y="464.057" width="10.167" height="10.167" style="fill-rule:nonzero;"/><rect x="669.5" y="504.724" width="10.167" height="10.167" style="fill-rule:nonzero;"/><rect x="679.667" y="260.724" width="10.167" height="10.167" style="fill-rule:nonzero;"/><rect x="679.667" y="321.724" width="10.167" height="10.167" style="fill-rule:nonzero;"/><rect x="679.667" y="342.057" width="10.167" height="10.167" style="fill-rule:nonzero;"/><rect x="679.667" y="352.224" width="10.167" height="10.167" style="fill-rule:nonzero;"/><rect x="679.667" y="362.391" width="10.167" height="10.167" style="fill-rule:nonzero;"/><rect x="679.667" y="372.557" width="10.167" height="10.167" style="fill-rule:nonzero;"/><rect x="679.667" y="382.724" width="10.167" height="10.167" style="fill-rule:nonzero;"/><rect x="679.667" y="403.057" width="10.167" height="10.167" style="fill-rule:nonzero;"/><rect x="679.667" y="423.391" width="10.167" height="10.167" style="fill-rule:nonzero;"/><rect x="679.667" y="433.557" width="10.167" height="10.167" style="fill-rule:nonzero;"/><rect x="679.667" y="443.724" width="10.167" height="10.167" style="fill-rule:nonzero;"/><rect x="679.667" y="504.724" width="10.167" height="10.167" style="fill-rule:nonzero;"/><rect x="689.833" y="260.724" width="10.167" height="10.167" style="fill-rule:nonzero;"/><rect x="689.833" y="270.891" width="10.167" height="10.167" style="fill-rule:nonzero;"/><rect x="689.833" y="281.057" width="10.167" height="10.167" style="fill-rule:nonzero;"/><rect x="689.833" y="291.224" width="10.167" height="10.167" style="fill-rule:nonzero;"/><rect x="689.833" y="301.391" width="10.167" height="10.167" style="fill-rule:nonzero;"/><rect x="689.833" y="311.557" width="10.167" height="10.167" style="fill-rule:nonzero;"/><rect x="689.833" y="321.724" width="10.167" height="10.167" style="fill-rule:nonzero;"/><rect x="689.833" y="342.057" width="10.167" height="10.167" style="fill-rule:nonzero;"/><rect x="689.833" y="362.391" width="10.167" height="10.167" style="fill-rule:nonzero;"/><rect x="689.833" y="372.557" width="10.167" height="10.167" style="fill-rule:nonzero;"/><rect x="689.833" y="382.724" width="10.167" height="10.167" style="fill-rule:nonzero;"/><rect x="689.833" y="403.057" width="10.167" height="10.167" style="fill-rule:nonzero;"/><rect x="689.833" y="413.224" width="10.167" height="10.167" style="fill-rule:nonzero;"/><rect x="689.833" y="423.391" width="10.167" height="10.167" style="fill-rule:nonzero;"/><rect x="689.833" y="443.724" width="10.167" height="10.167" style="fill-rule:nonzero;"/><rect x="689.833" y="453.891" width="10.167" height="10.167" style="fill-rule:nonzero;"/><rect x="689.833" y="474.224" width="10.167" height="10.167" style="fill-rule:nonzero;"/><rect x="689.833" y="484.391" width="10.167" height="10.167" style="fill-rule:nonzero;"/><rect x="689.833" y="494.557" width="10.167" height="10.167" style="fill-rule:nonzero;"/><rect x="689.833" y="504.724" width="10.167" height="10.167" style="fill-rule:nonzero;"/></g><path d="M282.292,325.823l8.831,-0l7.664,-11.914c1.083,-1.749 1.333,-2.082 1.583,-2.499c0.333,-0.667 0.583,-1.166 0.916,-2.249c0.5,1.333 1.5,3.082 2.666,4.915l7.582,11.747l9.331,-0l-14.497,-21.411l12.997,-19.329l-8.331,0l-6.332,9.998c-1.916,3.082 -2.249,3.666 -2.749,5.165c-0.5,-1.416 -1.5,-3.249 -2.666,-5.082l-6.665,-10.081l-9.247,0l13.496,19.329l-14.579,21.411Z" style="fill:#1a1a1a;fill-rule:nonzero;"/><path d="M621.583,205.221l-0.417,6.158c2.083,0.416 3.082,0.582 4.665,0.582c4.749,-0 8.081,-1.581 10.747,-5.158c2.083,-2.665 3.083,-4.748 5.832,-12.498l14.496,-40.334l-7.498,0l-9.58,27.667c-0.917,2.667 -1,2.917 -1.167,3.417c-0.25,0.916 -0.333,1.583 -0.583,3.083c-0.083,-1.75 -0.833,-4.667 -2.166,-8.417l-9.081,-25.75l-8.164,0l15.662,42.417c-0.833,2.833 -2.249,5.5 -3.749,7.333c-1.25,1.417 -3.166,2.25 -5.415,2.25c-1.333,0 -2.083,-0.166 -3.582,-0.75Z" style="fill:#1a1a1a;fill-rule:nonzero;"/><path d="M577.083,105.208l0,155.516" style="fill:none;stroke:#66bc45;stroke-width:8.33px;stroke-dasharray:0,16.67,41.67,0;"/><path d="M183.333,387.807l262.5,0" style="fill:none;stroke:#66bc45;stroke-width:8.33px;stroke-dasharray:0,16.67,41.67,0;"/></g></svg>