<?xml version="1.0" encoding="UTF-8" standalone="no"?><!DOCTYPE svg PUBLIC "-//W3C//DTD SVG 1.1//EN" "http://www.w3.org/Graphics/SVG/1.1/DTD/svg11.dtd"><svg width="100%" height="100%" viewBox="0 0 1146 1146" version="1.1" xmlns="http://www.w3.org/2000/svg" xmlns:xlink="http://www.w3.org/1999/xlink" xml:space="preserve" xmlns:serif="http://www.serif.com/" style="fill-rule:evenodd;clip-rule:evenodd;stroke-linejoin:round;stroke-miterlimit:20;"><path d="M962.5,105.208l-779.167,0l0,935.417l779.167,0l0,-935.417Zm-16.667,16.667l0,902.083c-102.243,0 -643.59,0 -745.833,0c0,0 0,-902.083 0,-902.083c-0,0 745.833,0 745.833,0l0,0Z" style="fill:#080605;"/><g id="Ebene1"></g><path d="M819.469,519.057l7.573,0l-0,-16.166c-0,-6.084 0.166,-8.25 0.917,-10.584c1.584,-5.083 5.836,-8.333 10.839,-8.333c4.335,-0 7.337,2.333 8.504,6.75c0.583,2.083 0.75,4.5 0.75,10.667l0,17.666l7.573,0l-0,-21.416c-0,-5.334 -0.416,-8.5 -1.498,-11.334c-2.164,-5.578 -7.075,-8.739 -13.745,-8.739c-6.17,-0 -10.756,2.496 -13.59,7.323c0.166,-1.333 0.25,-3.579 0.25,-6.408l-0,-19.415l-7.573,-0l-0,59.989Z" style="fill:#1a1a1a;fill-rule:nonzero;"/><path d="M558.003,732.269l8.665,0l6.749,-21.072c1.833,-5.758 2.583,-8.592 3.666,-13.178c0.917,4.169 2.166,8.504 3.749,13.339l6.999,20.911l8.749,0l12.998,-40.739l-7.499,-0l-6.832,22.162c-1.167,3.835 -2.417,8.42 -2.916,11.755c-0.917,-4.085 -2.25,-8.837 -3.167,-11.505l-7.415,-22.412l-8.832,-0l-7.999,25.413c-1.249,3.918 -1.416,4.502 -1.999,7.086l-0.333,1.418c-0.417,-3.002 -1.167,-5.669 -3.083,-12.005l-6.666,-21.912l-8.248,-0l13.414,40.739Z" style="fill:#1a1a1a;fill-rule:nonzero;"/><text x="265.927px" y="489.259px" style="font-family:'CartoGothicStd-Book', 'CartoGothic Std', sans-serif;font-size:83.333px;fill:#1a1a1a;">x</text><text x="627.614px" y="244.391px" style="font-family:'CartoGothicStd-Book', 'CartoGothic Std', sans-serif;font-size:83.333px;fill:#1a1a1a;">y</text><path d="M577.083,105.208l0,225" style="fill:none;stroke:#66bc45;stroke-width:8.33px;stroke-dasharray:0,16.67,41.67,0;"/><path d="M183.333,519.057l197.917,0" style="fill:none;stroke:#66bc45;stroke-width:8.33px;stroke-dasharray:0,16.67,41.67,0;"/><rect x="381.25" y="330.208" width="383.333" height="317.708" style="fill:#66bc45;stroke:#080605;stroke-width:8.33px;"/><text x="479.542px" y="508.063px" style="font-family:'CartoGothicStd-Book', 'CartoGothic Std', sans-serif;font-size:83.333px;fill:#1a1a1a;">L<tspan x="518.708px 566.958px " y="508.063px 508.063px ">og</tspan>o</text></svg>