<?xml version="1.0" encoding="UTF-8" standalone="no"?>
<!DOCTYPE svg PUBLIC "-//W3C//DTD SVG 1.1//EN" "http://www.w3.org/Graphics/SVG/1.1/DTD/svg11.dtd">
<svg width="100%" height="100%" viewBox="0 0 534 534" version="1.1" xmlns="http://www.w3.org/2000/svg" xmlns:xlink="http://www.w3.org/1999/xlink" xml:space="preserve" xmlns:serif="http://www.serif.com/" style="fill-rule:evenodd;clip-rule:evenodd;stroke-linejoin:round;stroke-miterlimit:2;">
    <g transform="matrix(1.06667,0,0,1.06667,0,0)">
        <g transform="matrix(1.16627,0,0,1.18599,-58.4771,-67.2525)">
            <path d="M264.5,60C379.022,60 472,152.978 472,267.5C472,382.022 379.022,475 264.5,475C149.978,475 57,382.022 57,267.5C57,152.978 149.978,60 264.5,60ZM264.5,73.055C371.817,73.055 458.945,160.183 458.945,267.5C458.945,374.817 371.817,461.945 264.5,461.945C157.183,461.945 70.055,374.817 70.055,267.5C70.055,160.183 157.183,73.055 264.5,73.055Z" style="fill:rgb(26,26,26);"/>
        </g>
        <g transform="matrix(1.46126,0,0,1.4572,-119.694,32.9147)">
            <g id="Ebene1">
                <g>
                    <g transform="matrix(180,0,0,180,117.202,218.095)">
                        <path d="M0.518,-0.448C0.518,-0.439 0.516,-0.431 0.512,-0.426C0.509,-0.421 0.504,-0.417 0.499,-0.415C0.493,-0.412 0.488,-0.41 0.481,-0.41C0.475,-0.409 0.47,-0.409 0.465,-0.408C0.438,-0.406 0.41,-0.404 0.381,-0.402C0.353,-0.399 0.327,-0.397 0.303,-0.394C0.28,-0.392 0.26,-0.389 0.245,-0.387C0.23,-0.385 0.222,-0.383 0.222,-0.382C0.22,-0.372 0.217,-0.361 0.213,-0.347C0.21,-0.333 0.206,-0.318 0.202,-0.302C0.198,-0.285 0.194,-0.269 0.19,-0.252C0.187,-0.235 0.183,-0.218 0.18,-0.203C0.177,-0.187 0.174,-0.173 0.172,-0.161C0.17,-0.148 0.169,-0.138 0.169,-0.131C0.169,-0.124 0.17,-0.116 0.171,-0.106C0.172,-0.096 0.174,-0.087 0.178,-0.078C0.182,-0.069 0.187,-0.061 0.194,-0.055C0.201,-0.049 0.211,-0.046 0.224,-0.046C0.23,-0.046 0.239,-0.048 0.249,-0.052C0.259,-0.056 0.27,-0.062 0.281,-0.07C0.293,-0.077 0.305,-0.086 0.318,-0.097C0.331,-0.107 0.343,-0.118 0.355,-0.131C0.362,-0.137 0.368,-0.143 0.376,-0.149C0.383,-0.154 0.391,-0.157 0.399,-0.157C0.411,-0.157 0.417,-0.152 0.417,-0.14C0.417,-0.134 0.416,-0.129 0.414,-0.123C0.412,-0.118 0.409,-0.113 0.406,-0.107C0.403,-0.102 0.399,-0.096 0.394,-0.091C0.39,-0.086 0.385,-0.08 0.38,-0.074C0.377,-0.07 0.372,-0.065 0.366,-0.058C0.36,-0.051 0.352,-0.044 0.343,-0.036C0.334,-0.028 0.324,-0.02 0.313,-0.012C0.302,-0.004 0.291,0.003 0.279,0.009C0.266,0.015 0.254,0.021 0.24,0.025C0.227,0.029 0.214,0.031 0.201,0.031C0.181,0.031 0.165,0.028 0.153,0.022C0.14,0.017 0.129,0.01 0.121,0C0.113,-0.009 0.107,-0.019 0.102,-0.031C0.098,-0.042 0.095,-0.054 0.093,-0.065C0.091,-0.077 0.09,-0.089 0.09,-0.1C0.089,-0.111 0.089,-0.121 0.089,-0.129C0.089,-0.139 0.09,-0.151 0.093,-0.165C0.095,-0.179 0.097,-0.193 0.1,-0.209C0.103,-0.225 0.106,-0.24 0.11,-0.257C0.114,-0.273 0.117,-0.288 0.12,-0.303C0.123,-0.317 0.126,-0.331 0.128,-0.343C0.13,-0.355 0.131,-0.365 0.131,-0.372C0.131,-0.376 0.129,-0.379 0.125,-0.379C0.121,-0.38 0.115,-0.379 0.108,-0.378C0.102,-0.377 0.094,-0.376 0.085,-0.375C0.077,-0.375 0.068,-0.375 0.059,-0.376C0.053,-0.377 0.047,-0.379 0.042,-0.381C0.037,-0.383 0.032,-0.385 0.028,-0.389C0.024,-0.392 0.021,-0.397 0.018,-0.402C0.016,-0.407 0.015,-0.414 0.015,-0.422C0.015,-0.432 0.017,-0.439 0.023,-0.443C0.028,-0.447 0.035,-0.449 0.042,-0.449L0.157,-0.449C0.159,-0.45 0.161,-0.454 0.164,-0.459C0.167,-0.465 0.171,-0.472 0.175,-0.481C0.178,-0.49 0.182,-0.5 0.187,-0.511C0.191,-0.523 0.195,-0.534 0.199,-0.547C0.204,-0.559 0.208,-0.571 0.212,-0.583C0.216,-0.596 0.22,-0.607 0.224,-0.618C0.229,-0.636 0.236,-0.648 0.243,-0.656C0.251,-0.663 0.26,-0.667 0.271,-0.667C0.279,-0.667 0.285,-0.666 0.29,-0.663C0.295,-0.66 0.299,-0.657 0.302,-0.653C0.305,-0.649 0.307,-0.644 0.309,-0.64C0.31,-0.635 0.311,-0.631 0.311,-0.627C0.311,-0.626 0.309,-0.622 0.307,-0.615C0.305,-0.609 0.303,-0.601 0.299,-0.592C0.296,-0.582 0.292,-0.572 0.288,-0.56C0.284,-0.548 0.28,-0.537 0.275,-0.525C0.271,-0.513 0.267,-0.502 0.263,-0.491C0.259,-0.48 0.255,-0.47 0.252,-0.462C0.283,-0.464 0.308,-0.466 0.329,-0.468L0.422,-0.477C0.432,-0.478 0.442,-0.478 0.452,-0.478C0.466,-0.478 0.477,-0.477 0.486,-0.476C0.495,-0.475 0.501,-0.473 0.506,-0.47C0.511,-0.468 0.514,-0.465 0.516,-0.461C0.517,-0.457 0.518,-0.453 0.518,-0.448Z" style="fill:rgb(26,26,26);fill-rule:nonzero;"/>
                    </g>
                    <g transform="matrix(180,0,0,180,198.853,218.095)">
                        <path d="M1.006,-0.741C1.006,-0.724 1.004,-0.7 1,-0.671C0.996,-0.641 0.99,-0.608 0.982,-0.57C0.974,-0.533 0.966,-0.499 0.958,-0.467C0.95,-0.435 0.941,-0.407 0.933,-0.384C0.917,-0.336 0.902,-0.295 0.888,-0.261C0.881,-0.243 0.872,-0.224 0.864,-0.204C0.855,-0.184 0.845,-0.161 0.834,-0.138C0.823,-0.114 0.814,-0.092 0.805,-0.073C0.797,-0.054 0.789,-0.037 0.783,-0.022C0.781,-0.016 0.775,-0.011 0.765,-0.006C0.756,-0.002 0.748,-0 0.743,-0C0.728,-0 0.713,-0.008 0.7,-0.023C0.687,-0.038 0.675,-0.059 0.663,-0.084C0.656,-0.096 0.648,-0.114 0.638,-0.137C0.628,-0.16 0.616,-0.188 0.602,-0.221C0.588,-0.255 0.575,-0.285 0.563,-0.313C0.55,-0.34 0.539,-0.364 0.529,-0.386C0.519,-0.371 0.5,-0.337 0.472,-0.285C0.458,-0.259 0.445,-0.233 0.432,-0.208C0.418,-0.183 0.405,-0.158 0.392,-0.133C0.366,-0.083 0.342,-0.041 0.32,-0.005C0.299,0.03 0.285,0.048 0.277,0.048C0.262,0.048 0.248,0.041 0.237,0.028C0.226,0.014 0.216,-0.002 0.208,-0.023C0.204,-0.033 0.199,-0.046 0.195,-0.06C0.191,-0.074 0.186,-0.091 0.181,-0.109C0.176,-0.128 0.173,-0.142 0.17,-0.152C0.167,-0.162 0.166,-0.168 0.165,-0.17C0.153,-0.217 0.14,-0.27 0.126,-0.327C0.113,-0.384 0.099,-0.447 0.085,-0.516C0.084,-0.521 0.083,-0.528 0.08,-0.539C0.077,-0.549 0.073,-0.563 0.068,-0.58C0.059,-0.614 0.054,-0.638 0.054,-0.652C0.054,-0.661 0.058,-0.669 0.066,-0.678C0.074,-0.686 0.082,-0.69 0.089,-0.69C0.097,-0.69 0.107,-0.681 0.119,-0.662C0.131,-0.643 0.141,-0.621 0.148,-0.595C0.151,-0.586 0.154,-0.575 0.158,-0.561C0.161,-0.546 0.166,-0.529 0.171,-0.508C0.176,-0.487 0.181,-0.462 0.188,-0.434C0.194,-0.406 0.202,-0.375 0.21,-0.339C0.219,-0.303 0.226,-0.271 0.233,-0.243C0.239,-0.215 0.245,-0.191 0.251,-0.17C0.256,-0.149 0.261,-0.131 0.265,-0.116C0.269,-0.102 0.273,-0.09 0.276,-0.081C0.301,-0.123 0.323,-0.159 0.341,-0.19C0.359,-0.221 0.374,-0.247 0.386,-0.268C0.398,-0.289 0.409,-0.308 0.417,-0.324C0.426,-0.341 0.433,-0.355 0.438,-0.367C0.444,-0.38 0.452,-0.397 0.461,-0.419C0.471,-0.441 0.483,-0.468 0.497,-0.5C0.498,-0.503 0.5,-0.506 0.503,-0.509C0.506,-0.512 0.509,-0.515 0.512,-0.517C0.516,-0.52 0.52,-0.522 0.523,-0.523C0.527,-0.525 0.531,-0.526 0.535,-0.526C0.547,-0.526 0.561,-0.507 0.579,-0.469C0.587,-0.45 0.598,-0.425 0.612,-0.393C0.626,-0.36 0.643,-0.321 0.662,-0.275C0.701,-0.183 0.726,-0.129 0.738,-0.114C0.769,-0.165 0.795,-0.219 0.818,-0.277C0.841,-0.334 0.861,-0.393 0.878,-0.454C0.895,-0.514 0.907,-0.57 0.916,-0.621C0.924,-0.673 0.929,-0.72 0.931,-0.763C0.931,-0.767 0.935,-0.774 0.943,-0.782C0.951,-0.79 0.959,-0.794 0.965,-0.794C0.981,-0.794 0.991,-0.788 0.997,-0.776C1.003,-0.764 1.006,-0.753 1.006,-0.741Z" style="fill:rgb(26,26,26);fill-rule:nonzero;"/>
                    </g>
                </g>
            </g>
        </g>
    </g>
</svg>
