<?xml version="1.0" encoding="UTF-8" standalone="no"?><!DOCTYPE svg PUBLIC "-//W3C//DTD SVG 1.1//EN"
        "http://www.w3.org/Graphics/SVG/1.1/DTD/svg11.dtd">
<svg width="100%" height="100%" viewBox="0 0 3334 3334" version="1.1" xmlns="http://www.w3.org/2000/svg"
     xmlns:xlink="http://www.w3.org/1999/xlink" xml:space="preserve" xmlns:serif="http://www.serif.com/"
     style="fill-rule:evenodd;clip-rule:evenodd;stroke-linejoin:round;stroke-miterlimit:2;"><g id="Ebene1"><rect x="0" y="0" width="3333.33" height="3333.33" style="fill:#c7d301;fill-opacity:0.44;"/></g>
    <path d="M3333.33,-0l-3333.33,-0l0,3333.33l1666.67,0" style="fill:#c7d301;"/>
    <path d="M0,0l2125,0l0,483.217l-702.479,-0l-0,1601.67l-720.042,-0l0,-1601.67l-702.479,-0l0,-483.217Z"
          style="fill:#fff;fill-rule:nonzero;"/>
    <g id="Ebene2"><g><path d="M3009.26,3283.72l-0,-203.952l208.593,-0l0,203.952l-208.593,0Z" style="fill:#fff;fill-rule:nonzero;"/><path
            d="M2589.73,2897.94l0,-216.238l628.125,-0l0,216.238l-628.125,0Zm-270.703,0l0,-216.238l158.203,-0l0,216.238l-158.203,0Z"
            style="fill:#fff;fill-rule:nonzero;"/><path
            d="M2903.79,2584.64c-130.859,0 -216.992,-21.091 -258.399,-63.274c-41.406,-42.183 -62.109,-132.487 -62.109,-270.913c0,-140.063 22.07,-229.139 66.211,-267.226c44.141,-38.088 131.445,-57.131 261.914,-57.131c129.688,-0 214.258,22.525 253.711,67.574c39.453,45.05 59.18,132.282 59.18,261.698c-0,135.558 -22.657,224.429 -67.969,266.612c-45.313,41.773 -129.492,62.66 -252.539,62.66Zm1.172,-216.238c75,-0 120.703,-7.782 137.109,-23.344c16.016,-15.563 24.024,-47.302 24.024,-95.219c-0,-47.507 -9.571,-77.199 -28.711,-89.075c-19.532,-12.287 -64.063,-18.43 -133.594,-18.43c-69.922,0 -114.453,6.553 -133.594,19.658c-19.14,12.696 -28.711,41.978 -28.711,87.847c0,52.831 9.766,85.799 29.297,98.905c19.531,13.105 64.258,19.658 134.18,19.658Z"
            style="fill:#fff;fill-rule:nonzero;"/></g></g></svg>