<?xml version="1.0" encoding="UTF-8" standalone="no"?>
<!DOCTYPE svg PUBLIC "-//W3C//DTD SVG 1.1//EN" "http://www.w3.org/Graphics/SVG/1.1/DTD/svg11.dtd">
<svg width="100%" height="100%" viewBox="0 0 500 500" version="1.1" xmlns="http://www.w3.org/2000/svg" xmlns:xlink="http://www.w3.org/1999/xlink" xml:space="preserve" xmlns:serif="http://www.serif.com/" style="fill-rule:evenodd;clip-rule:evenodd;stroke-linejoin:round;stroke-miterlimit:2;">
    <g id="Ebene1" transform="matrix(1.20255,-0.159407,0.159407,1.20255,-85.5362,-42.3757)">
        <g transform="matrix(357.318,47.3652,-47.3652,357.318,31.5743,302.341)">
            <path d="M0.264,-0.493C0.297,-0.495 0.329,-0.498 0.358,-0.502C0.388,-0.505 0.412,-0.507 0.432,-0.507C0.456,-0.507 0.472,-0.505 0.479,-0.5C0.485,-0.495 0.488,-0.487 0.488,-0.476C0.488,-0.45 0.47,-0.435 0.433,-0.433C0.386,-0.43 0.342,-0.426 0.303,-0.421C0.263,-0.416 0.242,-0.411 0.239,-0.408C0.235,-0.405 0.226,-0.366 0.209,-0.292C0.192,-0.218 0.184,-0.17 0.184,-0.147C0.184,-0.112 0.189,-0.088 0.198,-0.076C0.208,-0.064 0.222,-0.058 0.241,-0.058C0.269,-0.058 0.308,-0.079 0.357,-0.121C0.377,-0.138 0.391,-0.147 0.402,-0.147C0.416,-0.147 0.423,-0.139 0.423,-0.125C0.423,-0.101 0.4,-0.071 0.355,-0.033C0.31,0.004 0.264,0.022 0.217,0.022C0.138,0.022 0.099,-0.024 0.099,-0.117C0.099,-0.15 0.107,-0.202 0.123,-0.272C0.139,-0.342 0.147,-0.384 0.147,-0.398C0.147,-0.403 0.143,-0.406 0.135,-0.406L0.084,-0.401C0.043,-0.401 0.022,-0.418 0.022,-0.451C0.022,-0.47 0.032,-0.479 0.051,-0.479L0.151,-0.479C0.158,-0.479 0.164,-0.483 0.169,-0.489C0.175,-0.495 0.182,-0.516 0.192,-0.551C0.202,-0.586 0.211,-0.621 0.219,-0.656C0.227,-0.69 0.242,-0.707 0.265,-0.707C0.279,-0.707 0.29,-0.702 0.298,-0.692C0.306,-0.683 0.31,-0.674 0.31,-0.665C0.31,-0.66 0.304,-0.637 0.292,-0.595L0.264,-0.493Z" style="fill:rgb(64,64,64);fill-rule:nonzero;"/>
        </g>
        <g transform="matrix(260.236,34.4962,-34.4962,260.236,155.183,394.726)">
            <path d="M0.534,-0.386C0.523,-0.371 0.502,-0.338 0.473,-0.285C0.349,-0.063 0.28,0.048 0.266,0.048C0.243,0.048 0.226,0.035 0.212,0.009C0.198,-0.017 0.179,-0.085 0.156,-0.197C0.132,-0.308 0.111,-0.415 0.095,-0.516C0.089,-0.545 0.083,-0.568 0.077,-0.586C0.069,-0.611 0.064,-0.629 0.064,-0.641C0.064,-0.654 0.069,-0.665 0.079,-0.676C0.088,-0.686 0.099,-0.691 0.111,-0.691C0.125,-0.691 0.138,-0.68 0.148,-0.658C0.159,-0.636 0.171,-0.583 0.184,-0.498C0.212,-0.314 0.24,-0.175 0.27,-0.081C0.351,-0.211 0.402,-0.294 0.421,-0.329C0.441,-0.364 0.469,-0.421 0.505,-0.5C0.515,-0.517 0.528,-0.526 0.544,-0.526C0.552,-0.526 0.56,-0.519 0.569,-0.505C0.578,-0.49 0.594,-0.451 0.617,-0.388C0.673,-0.23 0.712,-0.135 0.732,-0.104C0.847,-0.293 0.914,-0.489 0.932,-0.693C0.932,-0.697 0.936,-0.704 0.945,-0.712C0.954,-0.72 0.962,-0.724 0.97,-0.724C0.996,-0.724 1.009,-0.707 1.009,-0.674C1.009,-0.639 1,-0.588 0.983,-0.519C0.965,-0.45 0.944,-0.386 0.92,-0.328C0.896,-0.27 0.855,-0.182 0.798,-0.063C0.788,-0.044 0.78,-0.027 0.774,-0.012C0.771,-0.006 0.764,-0 0.755,0.004C0.746,0.008 0.738,0.01 0.733,0.01C0.719,0.01 0.705,0.003 0.69,-0.013C0.676,-0.028 0.654,-0.073 0.625,-0.147C0.596,-0.222 0.575,-0.278 0.562,-0.315C0.552,-0.341 0.543,-0.364 0.534,-0.386Z" style="fill:rgb(64,64,64);fill-rule:nonzero;"/>
        </g>
        <g transform="matrix(0.776812,0.102972,-0.0523778,0.395133,37.5976,252.957)">
            <rect x="0" y="414" width="526" height="91" style="fill:rgb(219,232,2);"/>
        </g>
    </g>
</svg>
