<?xml version="1.0" encoding="utf-8"?>
<!-- Generator: Adobe Illustrator 19.2.1, SVG Export Plug-In . SVG Version: 6.00 Build 0)  -->
<svg version="1.1" id="Ebene_1" xmlns="http://www.w3.org/2000/svg" xmlns:xlink="http://www.w3.org/1999/xlink" x="0px" y="0px"
	 viewBox="0 0 125.9 39.1" style="enable-background:new 0 0 125.9 39.1;" xml:space="preserve">
<style type="text/css">
	.st0{fill:none;}
	.st1{fill:#EE383F;}
	.st2{fill:#676C6E;}
	.st3{clip-path:url(#SVGID_2_);fill:#676C6E;}
</style>
<g>
	<rect x="0" class="st0" width="125.9" height="42.9"/>
	<path class="st1" d="M21.8,19.9c-0.1-0.3-0.3-0.6-0.5-0.9c-0.2-0.3-0.5-0.5-0.8-0.6c-0.3-0.2-0.7-0.2-1.1-0.2H5.4V2.7
		c0-0.4-0.1-0.8-0.2-1.1C5.1,1.3,4.8,1,4.6,0.8C4.3,0.5,4.1,0.4,3.8,0.3c-0.3-0.1-0.6-0.2-1-0.2c-0.4,0-0.7,0.1-1,0.2
		C1.5,0.4,1.2,0.5,0.9,0.8C0.7,1,0.5,1.3,0.3,1.6C0.2,1.9,0.1,2.3,0.1,2.7v18.2c0,0.4,0.1,0.8,0.2,1.2c0.2,0.3,0.3,0.6,0.6,0.8
		c0.2,0.2,0.4,0.3,0.6,0.4c0,0,0,0,0,0c0,0,0,0,0,0c0,0,0.1,0,0.1,0.1c0.1,0,0.2,0,0.3,0.1c0.1,0,0.1,0,0.2,0c0.2,0,0.4,0.1,0.5,0.1
		c0,0,0,0,0,0s0,0,0,0h16.6c0.4,0,0.8-0.1,1.1-0.2c0.3-0.2,0.6-0.4,0.8-0.6c0.2-0.3,0.4-0.5,0.5-0.8c0.1-0.3,0.2-0.6,0.2-1
		C22,20.6,21.9,20.2,21.8,19.9"/>
	<path class="st2" d="M39.6,5.1l-5.3,15.1c-0.2,0.7-0.5,1.2-0.8,1.6c-0.3,0.4-0.6,0.8-0.9,1c-0.3,0.2-0.7,0.4-1,0.5
		c-0.4,0.1-0.8,0.1-1.2,0.1c-0.7,0-1.4-0.2-2-0.7c-0.6-0.4-1.1-1.2-1.5-2.3L21.2,4c-0.1-0.2-0.1-0.3-0.1-0.5c0-0.1,0-0.3,0-0.4
		c0-0.4,0.1-0.7,0.2-1c0.1-0.3,0.3-0.6,0.5-0.8c0.2-0.2,0.5-0.4,0.8-0.5s0.6-0.2,0.9-0.2c0.5,0,1,0.2,1.4,0.5c0.4,0.3,0.7,0.8,1,1.4
		l5,15.9l5.3-15.1c0.3-0.9,0.8-1.6,1.3-2.1c0.5-0.4,1.3-0.7,2.1-0.7c0.9,0,1.6,0.2,2.2,0.6c0.6,0.4,1,1.1,1.3,2.1l5,14.9l5-15.7
		c0.2-0.6,0.5-1.1,0.9-1.4c0.4-0.3,0.9-0.5,1.4-0.5c0.7,0,1.3,0.2,1.7,0.7c0.4,0.4,0.6,1,0.6,1.7c0,0.3-0.1,0.7-0.2,1l-5.9,16.5
		c-0.4,1.1-0.9,1.8-1.5,2.3c-0.6,0.5-1.2,0.7-2,0.7c-0.4,0-0.7,0-1.1-0.1c-0.3-0.1-0.7-0.3-1-0.5c-0.3-0.2-0.6-0.6-0.8-1
		s-0.5-1-0.7-1.6L39.6,5.1z"/>
	<path class="st2" d="M88.1,3.1c0-0.4,0.1-0.8,0.2-1.1c0.2-0.3,0.4-0.6,0.6-0.8c0.3-0.2,0.5-0.4,0.9-0.5c0.3-0.1,0.7-0.2,1-0.2
		c0.3,0,0.6,0,0.9,0.1C92,0.9,92.3,1,92.5,1.2c0.2,0.2,0.4,0.4,0.6,0.7c0.2,0.3,0.2,0.6,0.3,1c0,0,0,0.1,0,0.3c0,0.2,0,0.4,0,0.6
		v0.6v0.3c0.3-1.3,1-2.4,2-3.2c1-0.8,2.3-1.3,4-1.3c0.4,0,0.7,0.1,1,0.2c0.3,0.1,0.5,0.3,0.7,0.5c0.2,0.2,0.3,0.4,0.4,0.7
		s0.1,0.5,0.1,0.8c0,0.3,0,0.5-0.1,0.8s-0.3,0.5-0.5,0.7c-0.2,0.2-0.5,0.4-0.8,0.5c-0.3,0.1-0.7,0.2-1.1,0.2c-0.9,0-1.7,0.1-2.4,0.4
		c-0.7,0.3-1.3,0.6-1.8,1.2c-0.5,0.5-0.9,1.1-1.2,1.8c-0.3,0.7-0.4,1.6-0.4,2.6v10.2c0,0.4-0.1,0.8-0.2,1.1
		c-0.2,0.3-0.4,0.6-0.6,0.8c-0.3,0.2-0.5,0.4-0.9,0.5c-0.3,0.1-0.7,0.2-1,0.2c-0.3,0-0.7-0.1-1-0.2c-0.3-0.1-0.6-0.3-0.8-0.5
		c-0.2-0.2-0.5-0.5-0.6-0.8c-0.2-0.3-0.2-0.7-0.2-1.1V3.1z"/>
	<path class="st2" d="M111,11.3v9.5c0,0.4-0.1,0.8-0.2,1.2c-0.2,0.3-0.4,0.6-0.6,0.8c-0.3,0.2-0.5,0.4-0.9,0.5
		c-0.3,0.1-0.7,0.2-1,0.2c-0.3,0-0.7-0.1-1-0.2c-0.3-0.1-0.6-0.3-0.8-0.5c-0.2-0.2-0.4-0.5-0.6-0.8c-0.2-0.3-0.2-0.7-0.2-1.2V2.6
		c0-0.4,0.1-0.8,0.2-1.1c0.2-0.3,0.4-0.6,0.6-0.8c0.3-0.2,0.5-0.4,0.9-0.5c0.3-0.1,0.7-0.2,1-0.2c0.3,0,0.7,0.1,1,0.2
		c0.3,0.1,0.6,0.3,0.8,0.5c0.3,0.2,0.5,0.5,0.6,0.8c0.2,0.3,0.2,0.7,0.2,1.1v7.1l9-8.2c0.3-0.3,0.6-0.5,0.9-0.7
		c0.3-0.2,0.6-0.2,0.9-0.2c0.3,0,0.6,0.1,0.9,0.2c0.3,0.1,0.5,0.3,0.8,0.5c0.2,0.2,0.4,0.4,0.5,0.7c0.1,0.3,0.2,0.5,0.2,0.8
		c0,0.2,0,0.5-0.1,0.7c-0.1,0.2-0.2,0.4-0.4,0.6l-7.6,6.5l8.6,9.4c0.2,0.2,0.3,0.4,0.3,0.6c0,0.2,0.1,0.4,0.1,0.6
		c0,0.3-0.1,0.6-0.2,0.9c-0.1,0.3-0.3,0.5-0.6,0.7c-0.2,0.2-0.5,0.4-0.8,0.5c-0.3,0.1-0.6,0.2-0.9,0.2c-0.4,0-0.7-0.1-1-0.3
		c-0.3-0.2-0.6-0.5-0.9-0.8L111,11.3z"/>
	<path class="st2" d="M80.1,16.5c-1.6,1.5-2.4,2.1-3.3,2.7c-0.8,0.5-2.1,0.9-3.2,1.1c-1.1,0.1-2.1,0-2.9-0.4
		c-0.8-0.4-1.6-0.9-2.2-1.6s-1.1-1.6-1.4-2.5c-0.4-1-0.6-1.9-0.7-2.8c-0.1-0.9-0.1-1.8,0-2.9c0.1-1,0.4-2,0.8-2.8
		c0.4-0.8,1-1.5,1.7-2.1c0.7-0.6,1.7-0.9,2.8-1c1.1-0.1,2.1,0,2.9,0.4c0.8,0.4,1.6,0.9,2.2,1.6c0.4,0.5,0.7,1,1,1.6
		c0,0-6.4,2.5-8,3.1c-1.5,0.6-0.4,3.1,1,2.6S81.8,9.3,82.6,9c0.8-0.3,1-1,0.6-2c-0.4-1-1.6-3-2.5-3.8c-1.1-1-2.5-1.7-4-2.2
		c-1.6-0.5-3.3-0.6-5.3-0.3c-2,0.2-3.7,0.8-5.1,1.6C64.8,3,63.6,4,62.8,5.3c-0.8,1.2-1.4,2.6-1.7,4.1c-0.3,1.5-0.4,2.9-0.2,4.3
		c0.2,1.4,0.6,2.7,1.2,4.1c0.7,1.4,1.5,2.5,2.6,3.5c1.1,1,2.4,1.7,4,2.2c1.6,0.5,3.3,0.6,5.4,0.3c2-0.2,3.7-0.8,5.1-1.6
		c1.4-0.8,2.6-1.9,3.4-3.1C84,17.1,81.7,15,80.1,16.5"/>
	<rect x="0" class="st0" width="125.9" height="42.9"/>
	<polygon class="st2" points="0,30.3 0,36.4 0.8,36.4 0.8,33.6 2.6,33.6 2.6,32.9 0.8,32.9 0.8,31 2.7,31 2.7,30.3 	"/>
	<g>
		<defs>
			<rect id="SVGID_1_" x="0" width="125.9" height="42.9"/>
		</defs>
		<clipPath id="SVGID_2_">
			<use xlink:href="#SVGID_1_"  style="overflow:visible;"/>
		</clipPath>
		<path class="st3" d="M6.2,31.2c-0.3-0.2-0.7-0.3-1-0.3c-0.6,0-0.9,0.4-0.9,0.9c0,0.4,0.2,0.6,1,1.1c0.9,0.5,1.2,1.1,1.2,1.8
			c0,1-0.6,1.7-1.8,1.7c-0.5,0-0.9-0.1-1.3-0.3v-0.8c0.3,0.2,0.8,0.4,1.2,0.4c0.7,0,1.1-0.5,1.1-1c0-0.5-0.1-0.7-0.9-1.2
			c-1.1-0.7-1.3-1-1.3-1.8c0-1,0.8-1.5,1.7-1.5c0.4,0,0.8,0.1,1.1,0.2V31.2z"/>
		<path class="st3" d="M8.1,35.7h0.5c1.3,0,2-0.9,2-2.5c0-1.3-0.5-2.3-2-2.3H8.1V35.7z M7.3,30.3h1.3c0.8,0,1.3,0.2,1.6,0.4
			c0.5,0.4,1.1,1.1,1.1,2.5c0,1.8-0.8,3.1-3.1,3.1H7.3V30.3z"/>
		<polygon class="st3" points="14.7,30.3 15.4,30.3 15.4,35.7 17.4,35.7 17.4,36.4 14.7,36.4 		"/>
		<polygon class="st3" points="22,36.4 21.2,36.4 20.2,32.7 20.2,32.7 19.4,36.4 18.5,36.4 17.4,32 18.1,32 19,35.7 19,35.7 
			19.8,32 20.7,32 21.6,35.7 21.6,35.7 22.4,32 23.1,32 		"/>
		<path class="st3" d="M26,33.8c0-0.9-0.3-1.4-0.9-1.4c-0.5,0-0.9,0.3-0.9,1.4H26z M24.2,34.4c0,1,0.4,1.5,1.2,1.5
			c0.4,0,0.8-0.2,1-0.4l0,0.7c-0.3,0.2-0.8,0.3-1.2,0.3c-1.2,0-1.8-0.9-1.8-2.3c0-1.4,0.6-2.3,1.7-2.3c1,0,1.6,0.8,1.6,2.1v0.4H24.2
			z"/>
		<path class="st3" d="M27.5,32.9c0-0.3,0-0.6,0-1h0.7l0,0.7h0c0.2-0.5,0.6-0.8,1.3-0.8v0.7c-0.1,0-0.2,0-0.3,0c-0.6,0-1,0.5-1,1.5
			v2.3h-0.7V32.9z"/>
		<polygon class="st3" points="30,29.9 30,36.4 30.7,36.4 30.7,34.2 30.8,34.2 32.4,36.4 33.3,36.4 31.4,33.9 33.1,32 32.3,32 
			30.7,33.7 30.7,29.9 		"/>
		<path class="st3" d="M37,35.8h0.7c0.8,0,1.2-0.5,1.2-1.1c0-0.6-0.3-1.1-1.1-1.1H37V35.8z M37,33h0.5c0.9,0,1.2-0.4,1.2-1
			c0-0.5-0.3-1-1.1-1H37V33z M36.3,30.3h1.5c1.2,0,1.7,0.6,1.7,1.5c0,0.7-0.4,1.2-1,1.3v0c0.7,0.1,1.1,0.7,1.1,1.5
			c0,0.8-0.6,1.7-1.9,1.7h-1.5V30.3z"/>
		<path class="st3" d="M42.9,33.8c0-0.9-0.3-1.4-0.9-1.4c-0.5,0-0.9,0.3-0.9,1.4H42.9z M41.1,34.4c0,1,0.4,1.5,1.2,1.5
			c0.4,0,0.8-0.2,1-0.4l0,0.7c-0.3,0.2-0.8,0.3-1.2,0.3c-1.2,0-1.8-0.9-1.8-2.3c0-1.4,0.6-2.3,1.7-2.3c1,0,1.6,0.8,1.6,2.1v0.4H41.1
			z"/>
		<path class="st3" d="M44.4,32.9c0-0.3,0-0.6,0-1h0.7l0,0.7h0c0.2-0.5,0.6-0.8,1.3-0.8v0.7c-0.1,0-0.2,0-0.3,0c-0.6,0-1,0.5-1,1.5
			v2.3h-0.7V32.9z"/>
		<rect x="47" y="29.9" class="st3" width="0.7" height="6.5"/>
		<path class="st3" d="M48.8,32h0.7v4.4h-0.7V32z M49.5,31h-0.8v-0.9h0.8V31z"/>
		<path class="st3" d="M50.5,32.9c0-0.3,0-0.6,0-1h0.7l0,0.7h0c0.2-0.5,0.6-0.7,1.1-0.7c0.8,0,1.3,0.4,1.3,1.4v3.1h-0.7v-2.9
			c0-0.7-0.3-1-0.7-1c-0.6,0-0.9,0.4-0.9,1.2v2.7h-0.7V32.9z"/>
		<path class="st3" d="M57.9,35.8h0.7c0.8,0,1.2-0.5,1.2-1.1c0-0.6-0.3-1.1-1.1-1.1h-0.7V35.8z M57.9,33h0.5c0.9,0,1.2-0.4,1.2-1
			c0-0.5-0.3-1-1.1-1h-0.6V33z M57.1,30.3h1.5c1.2,0,1.7,0.6,1.7,1.5c0,0.7-0.4,1.2-1,1.3v0c0.7,0.1,1.1,0.7,1.1,1.5
			c0,0.8-0.6,1.7-1.9,1.7h-1.5V30.3z"/>
		<path class="st3" d="M61.4,32.9c0-0.3,0-0.6,0-1h0.7l0,0.7h0c0.2-0.5,0.6-0.8,1.3-0.8v0.7c-0.1,0-0.2,0-0.3,0c-0.6,0-1,0.5-1,1.5
			v2.3h-0.7V32.9z"/>
		<path class="st3" d="M66.2,34.2c-0.1,0-0.3,0-0.5,0c-0.9,0-1.3,0.4-1.3,0.9c0,0.5,0.2,0.8,0.7,0.8c0.6,0,1-0.5,1-1.1V34.2z
			 M64,32.3c0.4-0.2,0.8-0.4,1.3-0.4c0.7,0,1,0.3,1.2,0.4c0.2,0.2,0.4,0.5,0.4,1.1v2.3c0,0.3,0,0.5,0,0.7h-0.7l0-0.6h0
			c-0.2,0.3-0.6,0.7-1.2,0.7c-0.7,0-1.3-0.4-1.3-1.3c0-0.9,0.6-1.5,2.1-1.5h0.4v-0.2c0-0.3,0-0.5-0.2-0.7c-0.1-0.2-0.4-0.3-0.7-0.3
			c-0.5,0-0.9,0.2-1.1,0.5L64,32.3z"/>
		<path class="st3" d="M67.8,32.9c0-0.3,0-0.6,0-1h0.7l0,0.7h0c0.2-0.5,0.6-0.7,1.1-0.7c0.8,0,1.3,0.4,1.3,1.4v3.1h-0.7v-2.9
			c0-0.7-0.3-1-0.7-1c-0.6,0-0.9,0.4-0.9,1.2v2.7h-0.7V32.9z"/>
		<path class="st3" d="M73.4,32.5c-0.7,0-1,0.6-1,1.7c0,1.1,0.3,1.7,1,1.7c0.7,0,1-0.6,1-1.7C74.4,33.1,74.1,32.5,73.4,32.5
			 M75.1,35.6c0,0.3,0,0.5,0,0.8h-0.7l0-0.7h0c-0.2,0.3-0.5,0.7-1.2,0.7c-0.9,0-1.5-0.7-1.5-2.3c0-1.5,0.6-2.3,1.5-2.3
			c0.5,0,0.8,0.2,1.1,0.7h0v-2.7h0.7V35.6z"/>
		<path class="st3" d="M78.4,33.8c0-0.9-0.3-1.4-0.9-1.4c-0.5,0-0.9,0.3-0.9,1.4H78.4z M76.7,34.4c0,1,0.4,1.5,1.2,1.5
			c0.4,0,0.8-0.2,1-0.4l0,0.7c-0.3,0.2-0.8,0.3-1.2,0.3c-1.2,0-1.8-0.9-1.8-2.3c0-1.4,0.6-2.3,1.7-2.3c1,0,1.6,0.8,1.6,2.1v0.4H76.7
			z"/>
		<path class="st3" d="M79.9,32.9c0-0.3,0-0.6,0-1h0.7l0,0.7h0c0.2-0.5,0.6-0.7,1.1-0.7c0.8,0,1.3,0.4,1.3,1.4v3.1h-0.7v-2.9
			c0-0.7-0.3-1-0.7-1c-0.6,0-0.9,0.4-0.9,1.2v2.7h-0.7V32.9z"/>
		<path class="st3" d="M85.7,35.9c0.7,0,1-0.6,1-1.7c0-1.1-0.3-1.7-1-1.7c-0.7,0-1,0.6-1,1.7C84.7,35.3,85,35.9,85.7,35.9 M84,29.9
			h0.7v2.7h0c0.3-0.5,0.6-0.7,1.1-0.7c0.9,0,1.5,0.7,1.5,2.3c0,1.5-0.6,2.3-1.5,2.3c-0.6,0-1-0.4-1.2-0.7h0l0,0.7H84
			c0-0.3,0-0.5,0-0.8V29.9z"/>
		<path class="st3" d="M91.3,35.4c0,0.3,0,0.6,0,1h-0.7l0-0.7h0c-0.2,0.5-0.6,0.7-1.1,0.7c-0.8,0-1.3-0.4-1.3-1.4V32h0.7v2.9
			c0,0.7,0.3,1,0.7,1c0.6,0,0.9-0.4,0.9-1.2V32h0.7V35.4z"/>
		<path class="st3" d="M92.3,32.9c0-0.3,0-0.6,0-1H93l0,0.7h0c0.2-0.5,0.6-0.8,1.3-0.8v0.7c-0.1,0-0.2,0-0.3,0c-0.6,0-1,0.5-1,1.5
			v2.3h-0.7V32.9z"/>
		<path class="st3" d="M96.3,35.9c0.7,0,1-0.6,1-1.7c0-1.1-0.3-1.7-1-1.7c-0.7,0-1,0.6-1,1.7C95.4,35.3,95.7,35.9,96.3,35.9
			 M98,36.6c0,1.2-0.9,1.7-1.9,1.7c-0.4,0-1-0.1-1.3-0.3l0-0.7c0.3,0.2,0.8,0.4,1.2,0.4c0.9,0,1.2-0.5,1.2-1.3v-0.7h0
			c-0.3,0.5-0.7,0.7-1.2,0.7c-0.9,0-1.5-0.7-1.5-2.3c0-1.5,0.6-2.3,1.6-2.3c0.4,0,0.8,0.3,1.1,0.7h0l0-0.6h0.7c0,0.3,0,0.5,0,0.8
			V36.6z"/>
		<path class="st3" d="M102.8,35.9c0.7,0,1-0.6,1-1.7c0-1.1-0.3-1.7-1-1.7c-0.7,0-1,0.6-1,1.7C101.8,35.3,102.1,35.9,102.8,35.9
			 M104.5,36.6c0,1.2-0.9,1.7-1.9,1.7c-0.4,0-1-0.1-1.3-0.3l0-0.7c0.3,0.2,0.8,0.4,1.2,0.4c0.9,0,1.2-0.5,1.2-1.3v-0.7h0
			c-0.3,0.5-0.7,0.7-1.2,0.7c-0.9,0-1.5-0.7-1.5-2.3c0-1.5,0.6-2.3,1.6-2.3c0.4,0,0.8,0.3,1.1,0.7h0l0-0.6h0.7c0,0.3,0,0.5,0,0.8
			V36.6z"/>
		<path class="st3" d="M109.6,36.1c-0.4,0.1-1,0.3-1.5,0.3c-1.9,0-2.7-1.5-2.7-3.1c0-1.9,1.1-3.1,2.7-3.1c0.5,0,1,0.1,1.4,0.3v0.8
			c-0.5-0.2-1-0.4-1.4-0.4c-1,0-1.9,0.8-1.9,2.3c0,1.6,0.6,2.6,1.9,2.6c0.2,0,0.6-0.1,0.8-0.2v-1.9h-1v-0.7h1.7V36.1z"/>
		<path class="st3" d="M110.7,32.9c0-0.3,0-0.6,0-1h0.7l0,0.7h0c0.2-0.5,0.6-0.7,1.1-0.7c0.5,0,0.8,0.2,1,0.7
			c0.2-0.4,0.6-0.7,1.1-0.7c0.8,0,1.3,0.4,1.3,1.4v3.1h-0.7v-3c0-0.6-0.2-0.8-0.7-0.8c-0.5,0-0.8,0.3-0.8,1.1v2.7h-0.7v-3
			c0-0.6-0.2-0.8-0.7-0.8c-0.5,0-0.8,0.3-0.8,1.1v2.7h-0.7V32.9z"/>
		<path class="st3" d="M118.6,35.9c0.7,0,1-0.6,1-1.7c0-1.1-0.3-1.7-1-1.7c-0.7,0-1,0.6-1,1.7C117.6,35.3,117.9,35.9,118.6,35.9
			 M116.9,29.9h0.7v2.7h0c0.3-0.5,0.6-0.7,1.1-0.7c0.9,0,1.5,0.7,1.5,2.3c0,1.5-0.6,2.3-1.5,2.3c-0.6,0-1-0.4-1.2-0.7h0l0,0.7h-0.7
			c0-0.3,0-0.5,0-0.8V29.9z"/>
		<polygon class="st3" points="124.1,30.3 124.1,32.9 122,32.9 122,30.3 121.2,30.3 121.2,36.4 122,36.4 122,33.6 124.1,33.6 
			124.1,36.4 124.9,36.4 124.9,30.3 		"/>
	</g>
</g>
</svg>
